M48
; DRILL file {KiCad (5.1.5)-3} date 5/22/2020 4:31:09 PM
; FORMAT={3:3/ absolute / metric / suppress trailing zeros}
; #@! TF.CreationDate,2020-05-22T16:31:09-07:00
; #@! TF.GenerationSoftware,Kicad,Pcbnew,(5.1.5)-3
; #@! TF.FileFunction,Plated,1,2,PTH
FMAT,2
METRIC,LZ
T1C1.000
%
G90
G05
T1
X14238Y-05
X14492Y-05
X14746Y-05
X15Y-05
X165Y-040894
X165Y-043434
X165Y-045974
X165Y-048514
X165Y-051054
X165Y-053594
X165Y-056134
X165Y-058674
X18786Y-040894
X18786Y-043434
X18786Y-045974
X18786Y-048514
X18786Y-051054
X18786Y-053594
X18786Y-056134
X18786Y-058674
X137Y-035
X137Y-03754
X1425Y-0375
X14504Y-0375
X14758Y-0375
X15012Y-0375
T0
M30
