G04 #@! TF.GenerationSoftware,KiCad,Pcbnew,(5.1.5)-3*
G04 #@! TF.CreationDate,2020-05-22T17:40:20-07:00*
G04 #@! TF.ProjectId,Sprinkler,53707269-6e6b-46c6-9572-2e6b69636164,rev?*
G04 #@! TF.SameCoordinates,Original*
G04 #@! TF.FileFunction,Copper,L2,Bot*
G04 #@! TF.FilePolarity,Positive*
%FSLAX46Y46*%
G04 Gerber Fmt 4.6, Leading zero omitted, Abs format (unit mm)*
G04 Created by KiCad (PCBNEW (5.1.5)-3) date 2020-05-22 17:40:20*
%MOMM*%
%LPD*%
G04 APERTURE LIST*
%ADD10O,2.000000X1.600000*%
%ADD11R,2.000000X2.000000*%
%ADD12R,1.700000X1.700000*%
%ADD13O,1.700000X1.700000*%
%ADD14C,1.500000*%
%ADD15C,0.254000*%
G04 APERTURE END LIST*
D10*
X165000000Y-43434000D03*
D11*
X165000000Y-40894000D03*
D10*
X165000000Y-45974000D03*
X165000000Y-48514000D03*
X165000000Y-51054000D03*
X165000000Y-53594000D03*
X165000000Y-56134000D03*
X165000000Y-58674000D03*
X187860000Y-58674000D03*
X187860000Y-56134000D03*
X187860000Y-53594000D03*
X187860000Y-51054000D03*
X187860000Y-48514000D03*
X187860000Y-45974000D03*
X187860000Y-43434000D03*
X187860000Y-40894000D03*
D12*
X142500000Y-37500000D03*
D13*
X145040000Y-37500000D03*
X147580000Y-37500000D03*
X150120000Y-37500000D03*
X142380000Y-50000000D03*
X144920000Y-50000000D03*
X147460000Y-50000000D03*
D12*
X150000000Y-50000000D03*
X137000000Y-35000000D03*
D13*
X137000000Y-37540000D03*
D14*
X142500000Y-49880000D02*
X142380000Y-50000000D01*
X142500000Y-37500000D02*
X142500000Y-49880000D01*
X162500000Y-58674000D02*
X165000000Y-58674000D01*
X149851919Y-58674000D02*
X162500000Y-58674000D01*
X142380000Y-51202081D02*
X149851919Y-58674000D01*
X142380000Y-50000000D02*
X142380000Y-51202081D01*
X145040000Y-37500000D02*
X145040000Y-48960000D01*
X147580000Y-49880000D02*
X147460000Y-50000000D01*
X147580000Y-37500000D02*
X147580000Y-49880000D01*
X148377920Y-35000000D02*
X147580000Y-36297919D01*
X147580000Y-36297919D02*
X147580000Y-37500000D01*
X176000000Y-35000000D02*
X148377920Y-35000000D01*
X187860000Y-45974000D02*
X185360000Y-45974000D01*
X185360000Y-45974000D02*
X176000000Y-35000000D01*
X150120000Y-49880000D02*
X150000000Y-50000000D01*
X150120000Y-37500000D02*
X150120000Y-49880000D01*
X174198982Y-37500000D02*
X184000000Y-48514000D01*
X150120000Y-37500000D02*
X174198982Y-37500000D01*
X184000000Y-48514000D02*
X185360000Y-48514000D01*
X185360000Y-48514000D02*
X187860000Y-48514000D01*
X165417730Y-48514000D02*
X165000000Y-48514000D01*
X169000000Y-61000000D02*
X169000000Y-49000000D01*
X169000000Y-49000000D02*
X165417730Y-48514000D01*
X137000000Y-50000000D02*
X147000000Y-61000000D01*
X137000000Y-37540000D02*
X137000000Y-50000000D01*
X147000000Y-61000000D02*
X169000000Y-61000000D01*
D15*
G36*
X191873000Y-62875171D02*
G01*
X134127000Y-63870792D01*
X134127000Y-35850000D01*
X135511928Y-35850000D01*
X135524188Y-35974482D01*
X135560498Y-36094180D01*
X135619463Y-36204494D01*
X135698815Y-36301185D01*
X135795506Y-36380537D01*
X135905820Y-36439502D01*
X135978380Y-36461513D01*
X135846525Y-36593368D01*
X135684010Y-36836589D01*
X135572068Y-37106842D01*
X135515000Y-37393740D01*
X135515000Y-37686260D01*
X135572068Y-37973158D01*
X135615000Y-38076806D01*
X135615001Y-49898885D01*
X135609875Y-49933804D01*
X135615001Y-50035042D01*
X135615001Y-50068037D01*
X135618439Y-50102944D01*
X135623671Y-50206275D01*
X135631787Y-50238472D01*
X135635041Y-50271507D01*
X135665068Y-50370491D01*
X135690359Y-50470820D01*
X135704601Y-50500815D01*
X135714237Y-50532581D01*
X135763003Y-50623817D01*
X135807377Y-50717272D01*
X135827193Y-50743907D01*
X135842844Y-50773188D01*
X135908474Y-50853158D01*
X135929417Y-50881308D01*
X135951618Y-50905730D01*
X136015920Y-50984081D01*
X136043200Y-51006469D01*
X145951623Y-61905737D01*
X146015919Y-61984081D01*
X146095881Y-62049704D01*
X146172646Y-62119070D01*
X146201149Y-62136096D01*
X146226812Y-62157157D01*
X146318053Y-62205926D01*
X146406864Y-62258976D01*
X146438138Y-62270113D01*
X146467419Y-62285764D01*
X146566414Y-62315794D01*
X146663875Y-62350501D01*
X146696725Y-62355323D01*
X146728493Y-62364960D01*
X146831455Y-62375101D01*
X146933803Y-62390125D01*
X147035022Y-62385000D01*
X168931963Y-62385000D01*
X169000000Y-62391701D01*
X169068036Y-62385000D01*
X169068037Y-62385000D01*
X169271507Y-62364960D01*
X169532581Y-62285764D01*
X169773188Y-62157157D01*
X169984081Y-61984081D01*
X170157157Y-61773188D01*
X170285764Y-61532581D01*
X170364960Y-61271507D01*
X170391701Y-61000000D01*
X170385000Y-60931963D01*
X170385000Y-58674000D01*
X186218057Y-58674000D01*
X186245764Y-58955309D01*
X186327818Y-59225808D01*
X186461068Y-59475101D01*
X186640392Y-59693608D01*
X186858899Y-59872932D01*
X187108192Y-60006182D01*
X187378691Y-60088236D01*
X187589508Y-60109000D01*
X188130492Y-60109000D01*
X188341309Y-60088236D01*
X188611808Y-60006182D01*
X188861101Y-59872932D01*
X189079608Y-59693608D01*
X189258932Y-59475101D01*
X189392182Y-59225808D01*
X189474236Y-58955309D01*
X189501943Y-58674000D01*
X189474236Y-58392691D01*
X189392182Y-58122192D01*
X189258932Y-57872899D01*
X189079608Y-57654392D01*
X188861101Y-57475068D01*
X188731655Y-57405878D01*
X188749227Y-57398430D01*
X188982662Y-57239673D01*
X189180639Y-57038425D01*
X189335551Y-56802421D01*
X189441444Y-56540730D01*
X189451904Y-56483039D01*
X189329915Y-56261000D01*
X187987000Y-56261000D01*
X187987000Y-56281000D01*
X187733000Y-56281000D01*
X187733000Y-56261000D01*
X186390085Y-56261000D01*
X186268096Y-56483039D01*
X186278556Y-56540730D01*
X186384449Y-56802421D01*
X186539361Y-57038425D01*
X186737338Y-57239673D01*
X186970773Y-57398430D01*
X186988345Y-57405878D01*
X186858899Y-57475068D01*
X186640392Y-57654392D01*
X186461068Y-57872899D01*
X186327818Y-58122192D01*
X186245764Y-58392691D01*
X186218057Y-58674000D01*
X170385000Y-58674000D01*
X170385000Y-49025372D01*
X170389069Y-48914458D01*
X170374155Y-48821856D01*
X170364960Y-48728493D01*
X170352509Y-48687447D01*
X170345690Y-48645107D01*
X170312996Y-48557191D01*
X170285764Y-48467419D01*
X170265545Y-48429591D01*
X170250597Y-48389396D01*
X170201381Y-48309550D01*
X170157157Y-48226812D01*
X170129946Y-48193655D01*
X170107444Y-48157149D01*
X170043595Y-48088437D01*
X169984081Y-48015919D01*
X169950925Y-47988709D01*
X169921733Y-47957293D01*
X169845709Y-47902360D01*
X169773188Y-47842843D01*
X169735358Y-47822623D01*
X169700600Y-47797507D01*
X169615321Y-47758462D01*
X169532581Y-47714236D01*
X169491533Y-47701784D01*
X169452542Y-47683932D01*
X169361284Y-47662273D01*
X169271507Y-47635040D01*
X169161022Y-47624158D01*
X165967489Y-47190898D01*
X166001101Y-47172932D01*
X166219608Y-46993608D01*
X166398932Y-46775101D01*
X166532182Y-46525808D01*
X166614236Y-46255309D01*
X166641943Y-45974000D01*
X166614236Y-45692691D01*
X166532182Y-45422192D01*
X166398932Y-45172899D01*
X166219608Y-44954392D01*
X166001101Y-44775068D01*
X165868142Y-44704000D01*
X166001101Y-44632932D01*
X166219608Y-44453608D01*
X166398932Y-44235101D01*
X166532182Y-43985808D01*
X166614236Y-43715309D01*
X166641943Y-43434000D01*
X166614236Y-43152691D01*
X166532182Y-42882192D01*
X166398932Y-42632899D01*
X166266524Y-42471559D01*
X166354494Y-42424537D01*
X166451185Y-42345185D01*
X166530537Y-42248494D01*
X166589502Y-42138180D01*
X166625812Y-42018482D01*
X166638072Y-41894000D01*
X166638072Y-39894000D01*
X166625812Y-39769518D01*
X166589502Y-39649820D01*
X166530537Y-39539506D01*
X166451185Y-39442815D01*
X166354494Y-39363463D01*
X166244180Y-39304498D01*
X166124482Y-39268188D01*
X166000000Y-39255928D01*
X164000000Y-39255928D01*
X163875518Y-39268188D01*
X163755820Y-39304498D01*
X163645506Y-39363463D01*
X163548815Y-39442815D01*
X163469463Y-39539506D01*
X163410498Y-39649820D01*
X163374188Y-39769518D01*
X163361928Y-39894000D01*
X163361928Y-41894000D01*
X163374188Y-42018482D01*
X163410498Y-42138180D01*
X163469463Y-42248494D01*
X163548815Y-42345185D01*
X163645506Y-42424537D01*
X163733476Y-42471559D01*
X163601068Y-42632899D01*
X163467818Y-42882192D01*
X163385764Y-43152691D01*
X163358057Y-43434000D01*
X163385764Y-43715309D01*
X163467818Y-43985808D01*
X163601068Y-44235101D01*
X163780392Y-44453608D01*
X163998899Y-44632932D01*
X164131858Y-44704000D01*
X163998899Y-44775068D01*
X163780392Y-44954392D01*
X163601068Y-45172899D01*
X163467818Y-45422192D01*
X163385764Y-45692691D01*
X163358057Y-45974000D01*
X163385764Y-46255309D01*
X163467818Y-46525808D01*
X163601068Y-46775101D01*
X163780392Y-46993608D01*
X163998899Y-47172932D01*
X164131858Y-47244000D01*
X163998899Y-47315068D01*
X163780392Y-47494392D01*
X163601068Y-47712899D01*
X163467818Y-47962192D01*
X163385764Y-48232691D01*
X163358057Y-48514000D01*
X163385764Y-48795309D01*
X163467818Y-49065808D01*
X163601068Y-49315101D01*
X163780392Y-49533608D01*
X163998899Y-49712932D01*
X164131858Y-49784000D01*
X163998899Y-49855068D01*
X163780392Y-50034392D01*
X163601068Y-50252899D01*
X163467818Y-50502192D01*
X163385764Y-50772691D01*
X163358057Y-51054000D01*
X163385764Y-51335309D01*
X163467818Y-51605808D01*
X163601068Y-51855101D01*
X163780392Y-52073608D01*
X163998899Y-52252932D01*
X164131858Y-52324000D01*
X163998899Y-52395068D01*
X163780392Y-52574392D01*
X163601068Y-52792899D01*
X163467818Y-53042192D01*
X163385764Y-53312691D01*
X163358057Y-53594000D01*
X163385764Y-53875309D01*
X163467818Y-54145808D01*
X163601068Y-54395101D01*
X163780392Y-54613608D01*
X163998899Y-54792932D01*
X164131858Y-54864000D01*
X163998899Y-54935068D01*
X163780392Y-55114392D01*
X163601068Y-55332899D01*
X163467818Y-55582192D01*
X163385764Y-55852691D01*
X163358057Y-56134000D01*
X163385764Y-56415309D01*
X163467818Y-56685808D01*
X163601068Y-56935101D01*
X163780392Y-57153608D01*
X163945368Y-57289000D01*
X150425605Y-57289000D01*
X144572909Y-51436305D01*
X144793000Y-51320155D01*
X144793000Y-50127000D01*
X144773000Y-50127000D01*
X144773000Y-49873000D01*
X144793000Y-49873000D01*
X144793000Y-48679845D01*
X145047000Y-48679845D01*
X145047000Y-49873000D01*
X145067000Y-49873000D01*
X145067000Y-50127000D01*
X145047000Y-50127000D01*
X145047000Y-51320155D01*
X145276890Y-51441476D01*
X145424099Y-51396825D01*
X145686920Y-51271641D01*
X145920269Y-51097588D01*
X146115178Y-50881355D01*
X146184805Y-50764466D01*
X146306525Y-50946632D01*
X146513368Y-51153475D01*
X146756589Y-51315990D01*
X147026842Y-51427932D01*
X147313740Y-51485000D01*
X147606260Y-51485000D01*
X147893158Y-51427932D01*
X148163411Y-51315990D01*
X148406632Y-51153475D01*
X148538487Y-51021620D01*
X148560498Y-51094180D01*
X148619463Y-51204494D01*
X148698815Y-51301185D01*
X148795506Y-51380537D01*
X148905820Y-51439502D01*
X149025518Y-51475812D01*
X149150000Y-51488072D01*
X150850000Y-51488072D01*
X150974482Y-51475812D01*
X151094180Y-51439502D01*
X151204494Y-51380537D01*
X151301185Y-51301185D01*
X151380537Y-51204494D01*
X151439502Y-51094180D01*
X151475812Y-50974482D01*
X151488072Y-50850000D01*
X151488072Y-50119910D01*
X151505000Y-49948037D01*
X151505000Y-49948029D01*
X151511700Y-49880000D01*
X151505000Y-49811971D01*
X151505000Y-38885000D01*
X173577482Y-38885000D01*
X182946950Y-49414043D01*
X183015919Y-49498081D01*
X183090192Y-49559035D01*
X183160802Y-49624216D01*
X183195432Y-49645404D01*
X183226812Y-49671157D01*
X183311561Y-49716456D01*
X183393520Y-49766602D01*
X183431612Y-49780625D01*
X183467419Y-49799764D01*
X183559386Y-49827662D01*
X183649545Y-49860852D01*
X183689638Y-49867174D01*
X183728493Y-49878960D01*
X183824136Y-49888380D01*
X183919036Y-49903343D01*
X184027652Y-49899000D01*
X186805368Y-49899000D01*
X186640392Y-50034392D01*
X186461068Y-50252899D01*
X186327818Y-50502192D01*
X186245764Y-50772691D01*
X186218057Y-51054000D01*
X186245764Y-51335309D01*
X186327818Y-51605808D01*
X186461068Y-51855101D01*
X186640392Y-52073608D01*
X186858899Y-52252932D01*
X186991858Y-52324000D01*
X186858899Y-52395068D01*
X186640392Y-52574392D01*
X186461068Y-52792899D01*
X186327818Y-53042192D01*
X186245764Y-53312691D01*
X186218057Y-53594000D01*
X186245764Y-53875309D01*
X186327818Y-54145808D01*
X186461068Y-54395101D01*
X186640392Y-54613608D01*
X186858899Y-54792932D01*
X186988345Y-54862122D01*
X186970773Y-54869570D01*
X186737338Y-55028327D01*
X186539361Y-55229575D01*
X186384449Y-55465579D01*
X186278556Y-55727270D01*
X186268096Y-55784961D01*
X186390085Y-56007000D01*
X187733000Y-56007000D01*
X187733000Y-55987000D01*
X187987000Y-55987000D01*
X187987000Y-56007000D01*
X189329915Y-56007000D01*
X189451904Y-55784961D01*
X189441444Y-55727270D01*
X189335551Y-55465579D01*
X189180639Y-55229575D01*
X188982662Y-55028327D01*
X188749227Y-54869570D01*
X188731655Y-54862122D01*
X188861101Y-54792932D01*
X189079608Y-54613608D01*
X189258932Y-54395101D01*
X189392182Y-54145808D01*
X189474236Y-53875309D01*
X189501943Y-53594000D01*
X189474236Y-53312691D01*
X189392182Y-53042192D01*
X189258932Y-52792899D01*
X189079608Y-52574392D01*
X188861101Y-52395068D01*
X188728142Y-52324000D01*
X188861101Y-52252932D01*
X189079608Y-52073608D01*
X189258932Y-51855101D01*
X189392182Y-51605808D01*
X189474236Y-51335309D01*
X189501943Y-51054000D01*
X189474236Y-50772691D01*
X189392182Y-50502192D01*
X189258932Y-50252899D01*
X189079608Y-50034392D01*
X188861101Y-49855068D01*
X188728142Y-49784000D01*
X188861101Y-49712932D01*
X189079608Y-49533608D01*
X189258932Y-49315101D01*
X189392182Y-49065808D01*
X189474236Y-48795309D01*
X189501943Y-48514000D01*
X189474236Y-48232691D01*
X189392182Y-47962192D01*
X189258932Y-47712899D01*
X189079608Y-47494392D01*
X188861101Y-47315068D01*
X188728142Y-47244000D01*
X188861101Y-47172932D01*
X189079608Y-46993608D01*
X189258932Y-46775101D01*
X189392182Y-46525808D01*
X189474236Y-46255309D01*
X189501943Y-45974000D01*
X189474236Y-45692691D01*
X189392182Y-45422192D01*
X189258932Y-45172899D01*
X189079608Y-44954392D01*
X188861101Y-44775068D01*
X188728142Y-44704000D01*
X188861101Y-44632932D01*
X189079608Y-44453608D01*
X189258932Y-44235101D01*
X189392182Y-43985808D01*
X189474236Y-43715309D01*
X189501943Y-43434000D01*
X189474236Y-43152691D01*
X189392182Y-42882192D01*
X189258932Y-42632899D01*
X189079608Y-42414392D01*
X188861101Y-42235068D01*
X188728142Y-42164000D01*
X188861101Y-42092932D01*
X189079608Y-41913608D01*
X189258932Y-41695101D01*
X189392182Y-41445808D01*
X189474236Y-41175309D01*
X189501943Y-40894000D01*
X189474236Y-40612691D01*
X189392182Y-40342192D01*
X189258932Y-40092899D01*
X189079608Y-39874392D01*
X188861101Y-39695068D01*
X188611808Y-39561818D01*
X188341309Y-39479764D01*
X188130492Y-39459000D01*
X187589508Y-39459000D01*
X187378691Y-39479764D01*
X187108192Y-39561818D01*
X186858899Y-39695068D01*
X186640392Y-39874392D01*
X186461068Y-40092899D01*
X186327818Y-40342192D01*
X186245764Y-40612691D01*
X186218057Y-40894000D01*
X186245764Y-41175309D01*
X186327818Y-41445808D01*
X186461068Y-41695101D01*
X186640392Y-41913608D01*
X186858899Y-42092932D01*
X186991858Y-42164000D01*
X186858899Y-42235068D01*
X186640392Y-42414392D01*
X186461068Y-42632899D01*
X186327818Y-42882192D01*
X186245764Y-43152691D01*
X186218057Y-43434000D01*
X186245764Y-43715309D01*
X186327818Y-43985808D01*
X186461068Y-44235101D01*
X186640392Y-44453608D01*
X186805368Y-44589000D01*
X185999055Y-44589000D01*
X177062293Y-34111220D01*
X176984081Y-34015919D01*
X176921051Y-33964192D01*
X176862324Y-33907651D01*
X176815862Y-33877865D01*
X176773188Y-33842843D01*
X176701277Y-33804406D01*
X176632647Y-33760408D01*
X176581263Y-33740257D01*
X176532581Y-33714236D01*
X176454559Y-33690568D01*
X176378659Y-33660803D01*
X176324330Y-33651064D01*
X176271507Y-33635040D01*
X176190363Y-33627048D01*
X176110119Y-33612663D01*
X175986913Y-33615000D01*
X148419691Y-33615000D01*
X148325269Y-33609296D01*
X148216108Y-33624236D01*
X148106413Y-33635040D01*
X148081131Y-33642709D01*
X148054968Y-33646290D01*
X147950814Y-33682241D01*
X147845339Y-33714236D01*
X147822043Y-33726688D01*
X147797078Y-33735305D01*
X147701935Y-33790887D01*
X147604732Y-33842843D01*
X147584311Y-33859602D01*
X147561509Y-33872923D01*
X147479043Y-33945994D01*
X147393839Y-34015919D01*
X147377080Y-34036340D01*
X147357314Y-34053854D01*
X147290685Y-34141612D01*
X147220763Y-34226812D01*
X147176161Y-34310257D01*
X146449533Y-35492211D01*
X146422843Y-35524732D01*
X146378245Y-35608169D01*
X146364497Y-35630532D01*
X146346186Y-35668148D01*
X146294236Y-35765339D01*
X146286568Y-35790617D01*
X146275009Y-35814362D01*
X146247034Y-35920942D01*
X146215040Y-36026413D01*
X146212451Y-36052700D01*
X146205746Y-36078245D01*
X146199102Y-36188235D01*
X146195000Y-36229883D01*
X146195000Y-36256141D01*
X146189296Y-36350569D01*
X146195000Y-36392246D01*
X146195000Y-36574071D01*
X146040269Y-36402412D01*
X145806920Y-36228359D01*
X145544099Y-36103175D01*
X145396890Y-36058524D01*
X145167000Y-36179845D01*
X145167000Y-37373000D01*
X145187000Y-37373000D01*
X145187000Y-37627000D01*
X145167000Y-37627000D01*
X145167000Y-38820155D01*
X145396890Y-38941476D01*
X145544099Y-38896825D01*
X145806920Y-38771641D01*
X146040269Y-38597588D01*
X146195000Y-38425929D01*
X146195001Y-49220276D01*
X146184805Y-49235534D01*
X146115178Y-49118645D01*
X145920269Y-48902412D01*
X145686920Y-48728359D01*
X145424099Y-48603175D01*
X145276890Y-48558524D01*
X145047000Y-48679845D01*
X144793000Y-48679845D01*
X144563110Y-48558524D01*
X144415901Y-48603175D01*
X144153080Y-48728359D01*
X143919731Y-48902412D01*
X143885000Y-48940943D01*
X143885000Y-38696144D01*
X143939502Y-38594180D01*
X143963966Y-38513534D01*
X144039731Y-38597588D01*
X144273080Y-38771641D01*
X144535901Y-38896825D01*
X144683110Y-38941476D01*
X144913000Y-38820155D01*
X144913000Y-37627000D01*
X144893000Y-37627000D01*
X144893000Y-37373000D01*
X144913000Y-37373000D01*
X144913000Y-36179845D01*
X144683110Y-36058524D01*
X144535901Y-36103175D01*
X144273080Y-36228359D01*
X144039731Y-36402412D01*
X143963966Y-36486466D01*
X143939502Y-36405820D01*
X143880537Y-36295506D01*
X143801185Y-36198815D01*
X143704494Y-36119463D01*
X143594180Y-36060498D01*
X143474482Y-36024188D01*
X143350000Y-36011928D01*
X141650000Y-36011928D01*
X141525518Y-36024188D01*
X141405820Y-36060498D01*
X141295506Y-36119463D01*
X141198815Y-36198815D01*
X141119463Y-36295506D01*
X141060498Y-36405820D01*
X141024188Y-36525518D01*
X141011928Y-36650000D01*
X141011928Y-38350000D01*
X141024188Y-38474482D01*
X141060498Y-38594180D01*
X141115000Y-38696145D01*
X141115001Y-49220276D01*
X141064010Y-49296589D01*
X140952068Y-49566842D01*
X140895000Y-49853740D01*
X140895000Y-50146260D01*
X140952068Y-50433158D01*
X140995000Y-50536805D01*
X140995000Y-51134052D01*
X140988300Y-51202081D01*
X140995000Y-51270110D01*
X140995000Y-51270118D01*
X141015040Y-51473588D01*
X141094236Y-51734662D01*
X141222844Y-51975269D01*
X141352548Y-52133314D01*
X141352551Y-52133317D01*
X141395920Y-52186162D01*
X141448764Y-52229530D01*
X148824469Y-59605236D01*
X148832482Y-59615000D01*
X147612682Y-59615000D01*
X138385000Y-49464550D01*
X138385000Y-38076805D01*
X138427932Y-37973158D01*
X138485000Y-37686260D01*
X138485000Y-37393740D01*
X138427932Y-37106842D01*
X138315990Y-36836589D01*
X138153475Y-36593368D01*
X138021620Y-36461513D01*
X138094180Y-36439502D01*
X138204494Y-36380537D01*
X138301185Y-36301185D01*
X138380537Y-36204494D01*
X138439502Y-36094180D01*
X138475812Y-35974482D01*
X138488072Y-35850000D01*
X138485000Y-35285750D01*
X138326250Y-35127000D01*
X137127000Y-35127000D01*
X137127000Y-35147000D01*
X136873000Y-35147000D01*
X136873000Y-35127000D01*
X135673750Y-35127000D01*
X135515000Y-35285750D01*
X135511928Y-35850000D01*
X134127000Y-35850000D01*
X134127000Y-34150000D01*
X135511928Y-34150000D01*
X135515000Y-34714250D01*
X135673750Y-34873000D01*
X136873000Y-34873000D01*
X136873000Y-33673750D01*
X137127000Y-33673750D01*
X137127000Y-34873000D01*
X138326250Y-34873000D01*
X138485000Y-34714250D01*
X138488072Y-34150000D01*
X138475812Y-34025518D01*
X138439502Y-33905820D01*
X138380537Y-33795506D01*
X138301185Y-33698815D01*
X138204494Y-33619463D01*
X138094180Y-33560498D01*
X137974482Y-33524188D01*
X137850000Y-33511928D01*
X137285750Y-33515000D01*
X137127000Y-33673750D01*
X136873000Y-33673750D01*
X136714250Y-33515000D01*
X136150000Y-33511928D01*
X136025518Y-33524188D01*
X135905820Y-33560498D01*
X135795506Y-33619463D01*
X135698815Y-33698815D01*
X135619463Y-33795506D01*
X135560498Y-33905820D01*
X135524188Y-34025518D01*
X135511928Y-34150000D01*
X134127000Y-34150000D01*
X134127000Y-32127000D01*
X191873000Y-32127000D01*
X191873000Y-62875171D01*
G37*
X191873000Y-62875171D02*
X134127000Y-63870792D01*
X134127000Y-35850000D01*
X135511928Y-35850000D01*
X135524188Y-35974482D01*
X135560498Y-36094180D01*
X135619463Y-36204494D01*
X135698815Y-36301185D01*
X135795506Y-36380537D01*
X135905820Y-36439502D01*
X135978380Y-36461513D01*
X135846525Y-36593368D01*
X135684010Y-36836589D01*
X135572068Y-37106842D01*
X135515000Y-37393740D01*
X135515000Y-37686260D01*
X135572068Y-37973158D01*
X135615000Y-38076806D01*
X135615001Y-49898885D01*
X135609875Y-49933804D01*
X135615001Y-50035042D01*
X135615001Y-50068037D01*
X135618439Y-50102944D01*
X135623671Y-50206275D01*
X135631787Y-50238472D01*
X135635041Y-50271507D01*
X135665068Y-50370491D01*
X135690359Y-50470820D01*
X135704601Y-50500815D01*
X135714237Y-50532581D01*
X135763003Y-50623817D01*
X135807377Y-50717272D01*
X135827193Y-50743907D01*
X135842844Y-50773188D01*
X135908474Y-50853158D01*
X135929417Y-50881308D01*
X135951618Y-50905730D01*
X136015920Y-50984081D01*
X136043200Y-51006469D01*
X145951623Y-61905737D01*
X146015919Y-61984081D01*
X146095881Y-62049704D01*
X146172646Y-62119070D01*
X146201149Y-62136096D01*
X146226812Y-62157157D01*
X146318053Y-62205926D01*
X146406864Y-62258976D01*
X146438138Y-62270113D01*
X146467419Y-62285764D01*
X146566414Y-62315794D01*
X146663875Y-62350501D01*
X146696725Y-62355323D01*
X146728493Y-62364960D01*
X146831455Y-62375101D01*
X146933803Y-62390125D01*
X147035022Y-62385000D01*
X168931963Y-62385000D01*
X169000000Y-62391701D01*
X169068036Y-62385000D01*
X169068037Y-62385000D01*
X169271507Y-62364960D01*
X169532581Y-62285764D01*
X169773188Y-62157157D01*
X169984081Y-61984081D01*
X170157157Y-61773188D01*
X170285764Y-61532581D01*
X170364960Y-61271507D01*
X170391701Y-61000000D01*
X170385000Y-60931963D01*
X170385000Y-58674000D01*
X186218057Y-58674000D01*
X186245764Y-58955309D01*
X186327818Y-59225808D01*
X186461068Y-59475101D01*
X186640392Y-59693608D01*
X186858899Y-59872932D01*
X187108192Y-60006182D01*
X187378691Y-60088236D01*
X187589508Y-60109000D01*
X188130492Y-60109000D01*
X188341309Y-60088236D01*
X188611808Y-60006182D01*
X188861101Y-59872932D01*
X189079608Y-59693608D01*
X189258932Y-59475101D01*
X189392182Y-59225808D01*
X189474236Y-58955309D01*
X189501943Y-58674000D01*
X189474236Y-58392691D01*
X189392182Y-58122192D01*
X189258932Y-57872899D01*
X189079608Y-57654392D01*
X188861101Y-57475068D01*
X188731655Y-57405878D01*
X188749227Y-57398430D01*
X188982662Y-57239673D01*
X189180639Y-57038425D01*
X189335551Y-56802421D01*
X189441444Y-56540730D01*
X189451904Y-56483039D01*
X189329915Y-56261000D01*
X187987000Y-56261000D01*
X187987000Y-56281000D01*
X187733000Y-56281000D01*
X187733000Y-56261000D01*
X186390085Y-56261000D01*
X186268096Y-56483039D01*
X186278556Y-56540730D01*
X186384449Y-56802421D01*
X186539361Y-57038425D01*
X186737338Y-57239673D01*
X186970773Y-57398430D01*
X186988345Y-57405878D01*
X186858899Y-57475068D01*
X186640392Y-57654392D01*
X186461068Y-57872899D01*
X186327818Y-58122192D01*
X186245764Y-58392691D01*
X186218057Y-58674000D01*
X170385000Y-58674000D01*
X170385000Y-49025372D01*
X170389069Y-48914458D01*
X170374155Y-48821856D01*
X170364960Y-48728493D01*
X170352509Y-48687447D01*
X170345690Y-48645107D01*
X170312996Y-48557191D01*
X170285764Y-48467419D01*
X170265545Y-48429591D01*
X170250597Y-48389396D01*
X170201381Y-48309550D01*
X170157157Y-48226812D01*
X170129946Y-48193655D01*
X170107444Y-48157149D01*
X170043595Y-48088437D01*
X169984081Y-48015919D01*
X169950925Y-47988709D01*
X169921733Y-47957293D01*
X169845709Y-47902360D01*
X169773188Y-47842843D01*
X169735358Y-47822623D01*
X169700600Y-47797507D01*
X169615321Y-47758462D01*
X169532581Y-47714236D01*
X169491533Y-47701784D01*
X169452542Y-47683932D01*
X169361284Y-47662273D01*
X169271507Y-47635040D01*
X169161022Y-47624158D01*
X165967489Y-47190898D01*
X166001101Y-47172932D01*
X166219608Y-46993608D01*
X166398932Y-46775101D01*
X166532182Y-46525808D01*
X166614236Y-46255309D01*
X166641943Y-45974000D01*
X166614236Y-45692691D01*
X166532182Y-45422192D01*
X166398932Y-45172899D01*
X166219608Y-44954392D01*
X166001101Y-44775068D01*
X165868142Y-44704000D01*
X166001101Y-44632932D01*
X166219608Y-44453608D01*
X166398932Y-44235101D01*
X166532182Y-43985808D01*
X166614236Y-43715309D01*
X166641943Y-43434000D01*
X166614236Y-43152691D01*
X166532182Y-42882192D01*
X166398932Y-42632899D01*
X166266524Y-42471559D01*
X166354494Y-42424537D01*
X166451185Y-42345185D01*
X166530537Y-42248494D01*
X166589502Y-42138180D01*
X166625812Y-42018482D01*
X166638072Y-41894000D01*
X166638072Y-39894000D01*
X166625812Y-39769518D01*
X166589502Y-39649820D01*
X166530537Y-39539506D01*
X166451185Y-39442815D01*
X166354494Y-39363463D01*
X166244180Y-39304498D01*
X166124482Y-39268188D01*
X166000000Y-39255928D01*
X164000000Y-39255928D01*
X163875518Y-39268188D01*
X163755820Y-39304498D01*
X163645506Y-39363463D01*
X163548815Y-39442815D01*
X163469463Y-39539506D01*
X163410498Y-39649820D01*
X163374188Y-39769518D01*
X163361928Y-39894000D01*
X163361928Y-41894000D01*
X163374188Y-42018482D01*
X163410498Y-42138180D01*
X163469463Y-42248494D01*
X163548815Y-42345185D01*
X163645506Y-42424537D01*
X163733476Y-42471559D01*
X163601068Y-42632899D01*
X163467818Y-42882192D01*
X163385764Y-43152691D01*
X163358057Y-43434000D01*
X163385764Y-43715309D01*
X163467818Y-43985808D01*
X163601068Y-44235101D01*
X163780392Y-44453608D01*
X163998899Y-44632932D01*
X164131858Y-44704000D01*
X163998899Y-44775068D01*
X163780392Y-44954392D01*
X163601068Y-45172899D01*
X163467818Y-45422192D01*
X163385764Y-45692691D01*
X163358057Y-45974000D01*
X163385764Y-46255309D01*
X163467818Y-46525808D01*
X163601068Y-46775101D01*
X163780392Y-46993608D01*
X163998899Y-47172932D01*
X164131858Y-47244000D01*
X163998899Y-47315068D01*
X163780392Y-47494392D01*
X163601068Y-47712899D01*
X163467818Y-47962192D01*
X163385764Y-48232691D01*
X163358057Y-48514000D01*
X163385764Y-48795309D01*
X163467818Y-49065808D01*
X163601068Y-49315101D01*
X163780392Y-49533608D01*
X163998899Y-49712932D01*
X164131858Y-49784000D01*
X163998899Y-49855068D01*
X163780392Y-50034392D01*
X163601068Y-50252899D01*
X163467818Y-50502192D01*
X163385764Y-50772691D01*
X163358057Y-51054000D01*
X163385764Y-51335309D01*
X163467818Y-51605808D01*
X163601068Y-51855101D01*
X163780392Y-52073608D01*
X163998899Y-52252932D01*
X164131858Y-52324000D01*
X163998899Y-52395068D01*
X163780392Y-52574392D01*
X163601068Y-52792899D01*
X163467818Y-53042192D01*
X163385764Y-53312691D01*
X163358057Y-53594000D01*
X163385764Y-53875309D01*
X163467818Y-54145808D01*
X163601068Y-54395101D01*
X163780392Y-54613608D01*
X163998899Y-54792932D01*
X164131858Y-54864000D01*
X163998899Y-54935068D01*
X163780392Y-55114392D01*
X163601068Y-55332899D01*
X163467818Y-55582192D01*
X163385764Y-55852691D01*
X163358057Y-56134000D01*
X163385764Y-56415309D01*
X163467818Y-56685808D01*
X163601068Y-56935101D01*
X163780392Y-57153608D01*
X163945368Y-57289000D01*
X150425605Y-57289000D01*
X144572909Y-51436305D01*
X144793000Y-51320155D01*
X144793000Y-50127000D01*
X144773000Y-50127000D01*
X144773000Y-49873000D01*
X144793000Y-49873000D01*
X144793000Y-48679845D01*
X145047000Y-48679845D01*
X145047000Y-49873000D01*
X145067000Y-49873000D01*
X145067000Y-50127000D01*
X145047000Y-50127000D01*
X145047000Y-51320155D01*
X145276890Y-51441476D01*
X145424099Y-51396825D01*
X145686920Y-51271641D01*
X145920269Y-51097588D01*
X146115178Y-50881355D01*
X146184805Y-50764466D01*
X146306525Y-50946632D01*
X146513368Y-51153475D01*
X146756589Y-51315990D01*
X147026842Y-51427932D01*
X147313740Y-51485000D01*
X147606260Y-51485000D01*
X147893158Y-51427932D01*
X148163411Y-51315990D01*
X148406632Y-51153475D01*
X148538487Y-51021620D01*
X148560498Y-51094180D01*
X148619463Y-51204494D01*
X148698815Y-51301185D01*
X148795506Y-51380537D01*
X148905820Y-51439502D01*
X149025518Y-51475812D01*
X149150000Y-51488072D01*
X150850000Y-51488072D01*
X150974482Y-51475812D01*
X151094180Y-51439502D01*
X151204494Y-51380537D01*
X151301185Y-51301185D01*
X151380537Y-51204494D01*
X151439502Y-51094180D01*
X151475812Y-50974482D01*
X151488072Y-50850000D01*
X151488072Y-50119910D01*
X151505000Y-49948037D01*
X151505000Y-49948029D01*
X151511700Y-49880000D01*
X151505000Y-49811971D01*
X151505000Y-38885000D01*
X173577482Y-38885000D01*
X182946950Y-49414043D01*
X183015919Y-49498081D01*
X183090192Y-49559035D01*
X183160802Y-49624216D01*
X183195432Y-49645404D01*
X183226812Y-49671157D01*
X183311561Y-49716456D01*
X183393520Y-49766602D01*
X183431612Y-49780625D01*
X183467419Y-49799764D01*
X183559386Y-49827662D01*
X183649545Y-49860852D01*
X183689638Y-49867174D01*
X183728493Y-49878960D01*
X183824136Y-49888380D01*
X183919036Y-49903343D01*
X184027652Y-49899000D01*
X186805368Y-49899000D01*
X186640392Y-50034392D01*
X186461068Y-50252899D01*
X186327818Y-50502192D01*
X186245764Y-50772691D01*
X186218057Y-51054000D01*
X186245764Y-51335309D01*
X186327818Y-51605808D01*
X186461068Y-51855101D01*
X186640392Y-52073608D01*
X186858899Y-52252932D01*
X186991858Y-52324000D01*
X186858899Y-52395068D01*
X186640392Y-52574392D01*
X186461068Y-52792899D01*
X186327818Y-53042192D01*
X186245764Y-53312691D01*
X186218057Y-53594000D01*
X186245764Y-53875309D01*
X186327818Y-54145808D01*
X186461068Y-54395101D01*
X186640392Y-54613608D01*
X186858899Y-54792932D01*
X186988345Y-54862122D01*
X186970773Y-54869570D01*
X186737338Y-55028327D01*
X186539361Y-55229575D01*
X186384449Y-55465579D01*
X186278556Y-55727270D01*
X186268096Y-55784961D01*
X186390085Y-56007000D01*
X187733000Y-56007000D01*
X187733000Y-55987000D01*
X187987000Y-55987000D01*
X187987000Y-56007000D01*
X189329915Y-56007000D01*
X189451904Y-55784961D01*
X189441444Y-55727270D01*
X189335551Y-55465579D01*
X189180639Y-55229575D01*
X188982662Y-55028327D01*
X188749227Y-54869570D01*
X188731655Y-54862122D01*
X188861101Y-54792932D01*
X189079608Y-54613608D01*
X189258932Y-54395101D01*
X189392182Y-54145808D01*
X189474236Y-53875309D01*
X189501943Y-53594000D01*
X189474236Y-53312691D01*
X189392182Y-53042192D01*
X189258932Y-52792899D01*
X189079608Y-52574392D01*
X188861101Y-52395068D01*
X188728142Y-52324000D01*
X188861101Y-52252932D01*
X189079608Y-52073608D01*
X189258932Y-51855101D01*
X189392182Y-51605808D01*
X189474236Y-51335309D01*
X189501943Y-51054000D01*
X189474236Y-50772691D01*
X189392182Y-50502192D01*
X189258932Y-50252899D01*
X189079608Y-50034392D01*
X188861101Y-49855068D01*
X188728142Y-49784000D01*
X188861101Y-49712932D01*
X189079608Y-49533608D01*
X189258932Y-49315101D01*
X189392182Y-49065808D01*
X189474236Y-48795309D01*
X189501943Y-48514000D01*
X189474236Y-48232691D01*
X189392182Y-47962192D01*
X189258932Y-47712899D01*
X189079608Y-47494392D01*
X188861101Y-47315068D01*
X188728142Y-47244000D01*
X188861101Y-47172932D01*
X189079608Y-46993608D01*
X189258932Y-46775101D01*
X189392182Y-46525808D01*
X189474236Y-46255309D01*
X189501943Y-45974000D01*
X189474236Y-45692691D01*
X189392182Y-45422192D01*
X189258932Y-45172899D01*
X189079608Y-44954392D01*
X188861101Y-44775068D01*
X188728142Y-44704000D01*
X188861101Y-44632932D01*
X189079608Y-44453608D01*
X189258932Y-44235101D01*
X189392182Y-43985808D01*
X189474236Y-43715309D01*
X189501943Y-43434000D01*
X189474236Y-43152691D01*
X189392182Y-42882192D01*
X189258932Y-42632899D01*
X189079608Y-42414392D01*
X188861101Y-42235068D01*
X188728142Y-42164000D01*
X188861101Y-42092932D01*
X189079608Y-41913608D01*
X189258932Y-41695101D01*
X189392182Y-41445808D01*
X189474236Y-41175309D01*
X189501943Y-40894000D01*
X189474236Y-40612691D01*
X189392182Y-40342192D01*
X189258932Y-40092899D01*
X189079608Y-39874392D01*
X188861101Y-39695068D01*
X188611808Y-39561818D01*
X188341309Y-39479764D01*
X188130492Y-39459000D01*
X187589508Y-39459000D01*
X187378691Y-39479764D01*
X187108192Y-39561818D01*
X186858899Y-39695068D01*
X186640392Y-39874392D01*
X186461068Y-40092899D01*
X186327818Y-40342192D01*
X186245764Y-40612691D01*
X186218057Y-40894000D01*
X186245764Y-41175309D01*
X186327818Y-41445808D01*
X186461068Y-41695101D01*
X186640392Y-41913608D01*
X186858899Y-42092932D01*
X186991858Y-42164000D01*
X186858899Y-42235068D01*
X186640392Y-42414392D01*
X186461068Y-42632899D01*
X186327818Y-42882192D01*
X186245764Y-43152691D01*
X186218057Y-43434000D01*
X186245764Y-43715309D01*
X186327818Y-43985808D01*
X186461068Y-44235101D01*
X186640392Y-44453608D01*
X186805368Y-44589000D01*
X185999055Y-44589000D01*
X177062293Y-34111220D01*
X176984081Y-34015919D01*
X176921051Y-33964192D01*
X176862324Y-33907651D01*
X176815862Y-33877865D01*
X176773188Y-33842843D01*
X176701277Y-33804406D01*
X176632647Y-33760408D01*
X176581263Y-33740257D01*
X176532581Y-33714236D01*
X176454559Y-33690568D01*
X176378659Y-33660803D01*
X176324330Y-33651064D01*
X176271507Y-33635040D01*
X176190363Y-33627048D01*
X176110119Y-33612663D01*
X175986913Y-33615000D01*
X148419691Y-33615000D01*
X148325269Y-33609296D01*
X148216108Y-33624236D01*
X148106413Y-33635040D01*
X148081131Y-33642709D01*
X148054968Y-33646290D01*
X147950814Y-33682241D01*
X147845339Y-33714236D01*
X147822043Y-33726688D01*
X147797078Y-33735305D01*
X147701935Y-33790887D01*
X147604732Y-33842843D01*
X147584311Y-33859602D01*
X147561509Y-33872923D01*
X147479043Y-33945994D01*
X147393839Y-34015919D01*
X147377080Y-34036340D01*
X147357314Y-34053854D01*
X147290685Y-34141612D01*
X147220763Y-34226812D01*
X147176161Y-34310257D01*
X146449533Y-35492211D01*
X146422843Y-35524732D01*
X146378245Y-35608169D01*
X146364497Y-35630532D01*
X146346186Y-35668148D01*
X146294236Y-35765339D01*
X146286568Y-35790617D01*
X146275009Y-35814362D01*
X146247034Y-35920942D01*
X146215040Y-36026413D01*
X146212451Y-36052700D01*
X146205746Y-36078245D01*
X146199102Y-36188235D01*
X146195000Y-36229883D01*
X146195000Y-36256141D01*
X146189296Y-36350569D01*
X146195000Y-36392246D01*
X146195000Y-36574071D01*
X146040269Y-36402412D01*
X145806920Y-36228359D01*
X145544099Y-36103175D01*
X145396890Y-36058524D01*
X145167000Y-36179845D01*
X145167000Y-37373000D01*
X145187000Y-37373000D01*
X145187000Y-37627000D01*
X145167000Y-37627000D01*
X145167000Y-38820155D01*
X145396890Y-38941476D01*
X145544099Y-38896825D01*
X145806920Y-38771641D01*
X146040269Y-38597588D01*
X146195000Y-38425929D01*
X146195001Y-49220276D01*
X146184805Y-49235534D01*
X146115178Y-49118645D01*
X145920269Y-48902412D01*
X145686920Y-48728359D01*
X145424099Y-48603175D01*
X145276890Y-48558524D01*
X145047000Y-48679845D01*
X144793000Y-48679845D01*
X144563110Y-48558524D01*
X144415901Y-48603175D01*
X144153080Y-48728359D01*
X143919731Y-48902412D01*
X143885000Y-48940943D01*
X143885000Y-38696144D01*
X143939502Y-38594180D01*
X143963966Y-38513534D01*
X144039731Y-38597588D01*
X144273080Y-38771641D01*
X144535901Y-38896825D01*
X144683110Y-38941476D01*
X144913000Y-38820155D01*
X144913000Y-37627000D01*
X144893000Y-37627000D01*
X144893000Y-37373000D01*
X144913000Y-37373000D01*
X144913000Y-36179845D01*
X144683110Y-36058524D01*
X144535901Y-36103175D01*
X144273080Y-36228359D01*
X144039731Y-36402412D01*
X143963966Y-36486466D01*
X143939502Y-36405820D01*
X143880537Y-36295506D01*
X143801185Y-36198815D01*
X143704494Y-36119463D01*
X143594180Y-36060498D01*
X143474482Y-36024188D01*
X143350000Y-36011928D01*
X141650000Y-36011928D01*
X141525518Y-36024188D01*
X141405820Y-36060498D01*
X141295506Y-36119463D01*
X141198815Y-36198815D01*
X141119463Y-36295506D01*
X141060498Y-36405820D01*
X141024188Y-36525518D01*
X141011928Y-36650000D01*
X141011928Y-38350000D01*
X141024188Y-38474482D01*
X141060498Y-38594180D01*
X141115000Y-38696145D01*
X141115001Y-49220276D01*
X141064010Y-49296589D01*
X140952068Y-49566842D01*
X140895000Y-49853740D01*
X140895000Y-50146260D01*
X140952068Y-50433158D01*
X140995000Y-50536805D01*
X140995000Y-51134052D01*
X140988300Y-51202081D01*
X140995000Y-51270110D01*
X140995000Y-51270118D01*
X141015040Y-51473588D01*
X141094236Y-51734662D01*
X141222844Y-51975269D01*
X141352548Y-52133314D01*
X141352551Y-52133317D01*
X141395920Y-52186162D01*
X141448764Y-52229530D01*
X148824469Y-59605236D01*
X148832482Y-59615000D01*
X147612682Y-59615000D01*
X138385000Y-49464550D01*
X138385000Y-38076805D01*
X138427932Y-37973158D01*
X138485000Y-37686260D01*
X138485000Y-37393740D01*
X138427932Y-37106842D01*
X138315990Y-36836589D01*
X138153475Y-36593368D01*
X138021620Y-36461513D01*
X138094180Y-36439502D01*
X138204494Y-36380537D01*
X138301185Y-36301185D01*
X138380537Y-36204494D01*
X138439502Y-36094180D01*
X138475812Y-35974482D01*
X138488072Y-35850000D01*
X138485000Y-35285750D01*
X138326250Y-35127000D01*
X137127000Y-35127000D01*
X137127000Y-35147000D01*
X136873000Y-35147000D01*
X136873000Y-35127000D01*
X135673750Y-35127000D01*
X135515000Y-35285750D01*
X135511928Y-35850000D01*
X134127000Y-35850000D01*
X134127000Y-34150000D01*
X135511928Y-34150000D01*
X135515000Y-34714250D01*
X135673750Y-34873000D01*
X136873000Y-34873000D01*
X136873000Y-33673750D01*
X137127000Y-33673750D01*
X137127000Y-34873000D01*
X138326250Y-34873000D01*
X138485000Y-34714250D01*
X138488072Y-34150000D01*
X138475812Y-34025518D01*
X138439502Y-33905820D01*
X138380537Y-33795506D01*
X138301185Y-33698815D01*
X138204494Y-33619463D01*
X138094180Y-33560498D01*
X137974482Y-33524188D01*
X137850000Y-33511928D01*
X137285750Y-33515000D01*
X137127000Y-33673750D01*
X136873000Y-33673750D01*
X136714250Y-33515000D01*
X136150000Y-33511928D01*
X136025518Y-33524188D01*
X135905820Y-33560498D01*
X135795506Y-33619463D01*
X135698815Y-33698815D01*
X135619463Y-33795506D01*
X135560498Y-33905820D01*
X135524188Y-34025518D01*
X135511928Y-34150000D01*
X134127000Y-34150000D01*
X134127000Y-32127000D01*
X191873000Y-32127000D01*
X191873000Y-62875171D01*
G36*
X191873000Y-63873000D02*
G01*
X141368202Y-63873000D01*
X191873000Y-62131455D01*
X191873000Y-63873000D01*
G37*
X191873000Y-63873000D02*
X141368202Y-63873000D01*
X191873000Y-62131455D01*
X191873000Y-63873000D01*
M02*
