solid PowerSwitchMonitorCase
facet normal 0.0 0.0 -1.0
  outer loop
    vertex 0.0 46.0 0.0
    vertex 1.5000000000000002 41.74621699863981 5.639932965095795e-15
    vertex 0.0 0.0 0.0
  endloop
endfacet
facet normal 0.0 0.0 -1.0
  outer loop
    vertex 1.5000000000000002 41.74621699863981 5.639932965095795e-15
    vertex 0.0 46.0 0.0
    vertex 49.0 46.0 0.0
  endloop
endfacet
facet normal 0.0 0.0 -1.0
  outer loop
    vertex 1.5000000000000002 41.74621699863981 5.639932965095795e-15
    vertex 49.0 46.0 0.0
    vertex 24.5 41.74621699863981 5.639932965095795e-15
  endloop
endfacet
facet normal 0.0 0.0 -1.0
  outer loop
    vertex 24.5 41.74621699863981 5.639932965095795e-15
    vertex 49.0 46.0 0.0
    vertex 24.5 39.12499999999999 5.639932965095795e-15
  endloop
endfacet
facet normal 0.0 0.0 -1.0
  outer loop
    vertex 24.5 39.12499999999999 5.639932965095795e-15
    vertex 49.0 46.0 0.0
    vertex 24.5 36.43749999999999 0.0
  endloop
endfacet
facet normal 0.0 0.0 -1.0
  outer loop
    vertex 24.5 36.43749999999999 0.0
    vertex 49.0 46.0 0.0
    vertex 24.5 33.74999999999999 0.0
  endloop
endfacet
facet normal 0.0 0.0 -1.0
  outer loop
    vertex 24.5 33.74999999999999 0.0
    vertex 49.0 46.0 0.0
    vertex 24.5 31.062499999999996 4.229949723821846e-15
  endloop
endfacet
facet normal 0.0 0.0 -1.0
  outer loop
    vertex 24.5 31.062499999999996 4.229949723821846e-15
    vertex 49.0 46.0 0.0
    vertex 24.5 28.375 4.229949723821846e-15
  endloop
endfacet
facet normal 0.0 0.0 -1.0
  outer loop
    vertex 24.5 28.375 4.229949723821846e-15
    vertex 49.0 46.0 0.0
    vertex 24.5 25.6875 -8.459899447643692e-15
  endloop
endfacet
facet normal 0.0 0.0 -1.0
  outer loop
    vertex 24.5 25.6875 -8.459899447643692e-15
    vertex 49.0 46.0 0.0
    vertex 24.5 22.999999999999996 -8.459899447643692e-15
  endloop
endfacet
facet normal 0.0 0.0 -1.0
  outer loop
    vertex 0.0 0.0 0.0
    vertex 1.5000000000000002 22.999999999999996 -8.459899447643692e-15
    vertex 49.0 0.0 0.0
  endloop
endfacet
facet normal 0.0 0.0 -1.0
  outer loop
    vertex 1.5000000000000002 22.999999999999996 -8.459899447643692e-15
    vertex 0.0 0.0 0.0
    vertex 1.5000000000000002 41.74621699863981 5.639932965095795e-15
  endloop
endfacet
facet normal 0.0 0.0 -1.0
  outer loop
    vertex 1.5000000000000002 22.999999999999996 -8.459899447643692e-15
    vertex 1.5000000000000002 41.74621699863981 5.639932965095795e-15
    vertex 1.5000000000000002 39.12499999999999 5.639932965095795e-15
  endloop
endfacet
facet normal 0.0 0.0 -1.0
  outer loop
    vertex 1.5000000000000002 22.999999999999996 -8.459899447643692e-15
    vertex 1.5000000000000002 39.12499999999999 5.639932965095795e-15
    vertex 1.5000000000000002 36.43749999999999 0.0
  endloop
endfacet
facet normal 0.0 0.0 -1.0
  outer loop
    vertex 1.5000000000000002 22.999999999999996 -8.459899447643692e-15
    vertex 1.5000000000000002 36.43749999999999 0.0
    vertex 1.5000000000000002 33.74999999999999 0.0
  endloop
endfacet
facet normal 0.0 0.0 -1.0
  outer loop
    vertex 1.5000000000000002 22.999999999999996 -8.459899447643692e-15
    vertex 1.5000000000000002 33.74999999999999 0.0
    vertex 1.5000000000000002 31.062499999999996 4.229949723821846e-15
  endloop
endfacet
facet normal 0.0 0.0 -1.0
  outer loop
    vertex 1.5000000000000002 22.999999999999996 -8.459899447643692e-15
    vertex 1.5000000000000002 31.062499999999996 4.229949723821846e-15
    vertex 1.5000000000000002 28.375 4.229949723821846e-15
  endloop
endfacet
facet normal 0.0 0.0 -1.0
  outer loop
    vertex 1.5000000000000002 22.999999999999996 -8.459899447643692e-15
    vertex 1.5000000000000002 28.375 4.229949723821846e-15
    vertex 1.5000000000000002 25.6875 -8.459899447643692e-15
  endloop
endfacet
facet normal 0.0 0.0 -1.0
  outer loop
    vertex 49.0 0.0 0.0
    vertex 1.5000000000000002 22.999999999999996 -8.459899447643692e-15
    vertex 24.5 22.999999999999996 -8.459899447643692e-15
  endloop
endfacet
facet normal 0.0 0.0 -1.0
  outer loop
    vertex 49.0 0.0 0.0
    vertex 24.5 22.999999999999996 -8.459899447643692e-15
    vertex 49.0 46.0 0.0
  endloop
endfacet
facet normal 0.0 0.0 -1.0
  outer loop
    vertex 24.5 28.375 4.229949723821846e-15
    vertex 1.5000000000000002 25.6875 -8.459899447643692e-15
    vertex 1.5000000000000002 28.375 4.229949723821846e-15
  endloop
endfacet
facet normal 0.0 0.0 -1.0
  outer loop
    vertex 1.5000000000000002 25.6875 -8.459899447643692e-15
    vertex 24.5 28.375 4.229949723821846e-15
    vertex 24.5 25.6875 -8.459899447643692e-15
  endloop
endfacet
facet normal 0.0 0.0 -1.0
  outer loop
    vertex 24.5 33.74999999999999 0.0
    vertex 1.5000000000000002 31.062499999999996 4.229949723821846e-15
    vertex 1.5000000000000002 33.74999999999999 0.0
  endloop
endfacet
facet normal 0.0 0.0 -1.0
  outer loop
    vertex 1.5000000000000002 31.062499999999996 4.229949723821846e-15
    vertex 24.5 33.74999999999999 0.0
    vertex 24.5 31.062499999999996 4.229949723821846e-15
  endloop
endfacet
facet normal 0.0 0.0 -1.0
  outer loop
    vertex 24.5 39.12499999999999 5.639932965095795e-15
    vertex 1.5000000000000002 36.43749999999999 0.0
    vertex 1.5000000000000002 39.12499999999999 5.639932965095795e-15
  endloop
endfacet
facet normal 0.0 0.0 -1.0
  outer loop
    vertex 1.5000000000000002 36.43749999999999 0.0
    vertex 24.5 39.12499999999999 5.639932965095795e-15
    vertex 24.5 36.43749999999999 0.0
  endloop
endfacet
facet normal -0.0 -0.0 1.0
  outer loop
    vertex 0.0 0.0 21.0
    vertex 1.5000000000000002 1.5 21.0
    vertex 0.0 46.0 21.0
  endloop
endfacet
facet normal -0.0 -0.0 1.0
  outer loop
    vertex 1.5000000000000002 1.5 21.0
    vertex 0.0 0.0 21.0
    vertex 49.0 0.0 21.0
  endloop
endfacet
facet normal -0.0 -0.0 1.0
  outer loop
    vertex 1.5000000000000002 1.5 21.0
    vertex 49.0 0.0 21.0
    vertex 47.5 1.5 21.0
  endloop
endfacet
facet normal -0.0 -0.0 1.0
  outer loop
    vertex 47.5 1.5 21.0
    vertex 49.0 0.0 21.0
    vertex 47.5 44.5 21.0
  endloop
endfacet
facet normal -0.0 -0.0 1.0
  outer loop
    vertex 0.0 46.0 21.0
    vertex 1.5000000000000002 44.5 21.0
    vertex 49.0 46.0 21.0
  endloop
endfacet
facet normal -0.0 -0.0 1.0
  outer loop
    vertex 1.5000000000000002 44.5 21.0
    vertex 0.0 46.0 21.0
    vertex 1.5000000000000002 1.5 21.0
  endloop
endfacet
facet normal -0.0 -0.0 1.0
  outer loop
    vertex 49.0 46.0 21.0
    vertex 1.5000000000000002 44.5 21.0
    vertex 47.5 44.5 21.0
  endloop
endfacet
facet normal -0.0 -0.0 1.0
  outer loop
    vertex 49.0 46.0 21.0
    vertex 47.5 44.5 21.0
    vertex 49.0 0.0 21.0
  endloop
endfacet
facet normal 1.0 -0.0 -0.0
  outer loop
    vertex 49.0 0.0 0.0
    vertex 49.00000000000002 18.050252531694163 6.300252531694168
    vertex 49.0 0.0 21.0
  endloop
endfacet
facet normal 1.0 -0.0 -0.0
  outer loop
    vertex 49.00000000000002 18.050252531694163 6.300252531694168
    vertex 49.0 0.0 0.0
    vertex 49.00000000000002 19.499999999999996 5.187822173508931
  endloop
endfacet
facet normal 1.0 -0.0 -0.0
  outer loop
    vertex 49.00000000000002 19.499999999999996 5.187822173508931
    vertex 49.0 0.0 0.0
    vertex 49.00000000000002 21.18826668428235 4.488519215976523
  endloop
endfacet
facet normal 1.0 -0.0 -0.0
  outer loop
    vertex 49.00000000000002 21.18826668428235 4.488519215976523
    vertex 49.0 0.0 0.0
    vertex 49.0 46.0 0.0
  endloop
endfacet
facet normal 1.0 -0.0 -0.0
  outer loop
    vertex 49.0 0.0 21.0
    vertex 49.00000000000002 18.050252531694163 6.300252531694168
    vertex 49.00000000000002 16.937822173508927 7.750000000000003
  endloop
endfacet
facet normal 1.0 -0.0 -0.0
  outer loop
    vertex 49.0 0.0 21.0
    vertex 49.00000000000002 16.937822173508927 7.750000000000003
    vertex 49.00000000000002 16.23851921597652 9.438266684282357
  endloop
endfacet
facet normal 1.0 -0.0 -0.0
  outer loop
    vertex 49.0 0.0 21.0
    vertex 49.00000000000002 16.23851921597652 9.438266684282357
    vertex 49.00000000000002 15.999999999999998 11.25
  endloop
endfacet
facet normal 1.0 -0.0 -0.0
  outer loop
    vertex 49.00000000000002 21.18826668428235 4.488519215976523
    vertex 49.0 46.0 0.0
    vertex 49.00000000000002 22.999999999999996 4.250000000000001
  endloop
endfacet
facet normal 1.0 -0.0 -0.0
  outer loop
    vertex 49.00000000000002 22.999999999999996 4.250000000000001
    vertex 49.0 46.0 0.0
    vertex 49.00000000000002 24.81173331571764 4.488519215976521
  endloop
endfacet
facet normal 1.0 -0.0 -0.0
  outer loop
    vertex 49.00000000000002 24.81173331571764 4.488519215976521
    vertex 49.0 46.0 0.0
    vertex 49.00000000000002 26.499999999999996 5.18782217350893
  endloop
endfacet
facet normal 1.0 -0.0 -0.0
  outer loop
    vertex 49.00000000000002 26.499999999999996 5.18782217350893
    vertex 49.0 46.0 0.0
    vertex 49.00000000000002 27.949747468305826 6.3002525316941655
  endloop
endfacet
facet normal 1.0 -0.0 -0.0
  outer loop
    vertex 49.00000000000002 27.949747468305826 6.3002525316941655
    vertex 49.0 46.0 0.0
    vertex 49.00000000000002 29.062177826491066 7.749999999999997
  endloop
endfacet
facet normal 1.0 -0.0 -0.0
  outer loop
    vertex 49.00000000000002 29.062177826491066 7.749999999999997
    vertex 49.0 46.0 0.0
    vertex 49.00000000000002 29.761480784023473 9.43826668428235
  endloop
endfacet
facet normal 1.0 -0.0 -0.0
  outer loop
    vertex 49.00000000000002 29.761480784023473 9.43826668428235
    vertex 49.0 46.0 0.0
    vertex 49.00000000000002 29.999999999999996 11.25
  endloop
endfacet
facet normal 1.0 -0.0 -0.0
  outer loop
    vertex 49.0 0.0 21.0
    vertex 49.00000000000002 22.999999999999996 18.25
    vertex 49.0 46.0 21.0
  endloop
endfacet
facet normal 1.0 -0.0 -0.0
  outer loop
    vertex 49.00000000000002 22.999999999999996 18.25
    vertex 49.0 0.0 21.0
    vertex 49.00000000000002 21.18826668428235 18.01148078402348
  endloop
endfacet
facet normal 1.0 -0.0 -0.0
  outer loop
    vertex 49.00000000000002 21.18826668428235 18.01148078402348
    vertex 49.0 0.0 21.0
    vertex 49.00000000000002 19.499999999999996 17.31217782649107
  endloop
endfacet
facet normal 1.0 -0.0 -0.0
  outer loop
    vertex 49.00000000000002 19.499999999999996 17.31217782649107
    vertex 49.0 0.0 21.0
    vertex 49.00000000000002 18.050252531694163 16.199747468305834
  endloop
endfacet
facet normal 1.0 -0.0 -0.0
  outer loop
    vertex 49.00000000000002 18.050252531694163 16.199747468305834
    vertex 49.0 0.0 21.0
    vertex 49.00000000000002 16.93782217350893 14.750000000000002
  endloop
endfacet
facet normal 1.0 -0.0 -0.0
  outer loop
    vertex 49.00000000000002 16.93782217350893 14.750000000000002
    vertex 49.0 0.0 21.0
    vertex 49.00000000000002 16.23851921597652 13.061733315717648
  endloop
endfacet
facet normal 1.0 -0.0 -0.0
  outer loop
    vertex 49.00000000000002 16.23851921597652 13.061733315717648
    vertex 49.0 0.0 21.0
    vertex 49.00000000000002 15.999999999999998 11.25
  endloop
endfacet
facet normal 1.0 -0.0 -0.0
  outer loop
    vertex 49.0 46.0 21.0
    vertex 49.00000000000002 22.999999999999996 18.25
    vertex 49.00000000000002 24.81173331571765 18.01148078402348
  endloop
endfacet
facet normal 1.0 -0.0 -0.0
  outer loop
    vertex 49.0 46.0 21.0
    vertex 49.00000000000002 24.81173331571765 18.01148078402348
    vertex 49.00000000000002 26.500000000000004 17.31217782649107
  endloop
endfacet
facet normal 1.0 -0.0 -0.0
  outer loop
    vertex 49.0 46.0 21.0
    vertex 49.00000000000002 26.500000000000004 17.31217782649107
    vertex 49.00000000000002 27.94974746830583 16.199747468305834
  endloop
endfacet
facet normal 1.0 -0.0 -0.0
  outer loop
    vertex 49.0 46.0 21.0
    vertex 49.00000000000002 27.94974746830583 16.199747468305834
    vertex 49.00000000000002 29.062177826491073 14.749999999999995
  endloop
endfacet
facet normal 1.0 -0.0 -0.0
  outer loop
    vertex 49.0 46.0 21.0
    vertex 49.00000000000002 29.062177826491073 14.749999999999995
    vertex 49.00000000000002 29.761480784023473 13.06173331571764
  endloop
endfacet
facet normal 1.0 -0.0 -0.0
  outer loop
    vertex 49.0 46.0 21.0
    vertex 49.00000000000002 29.761480784023473 13.06173331571764
    vertex 49.00000000000002 29.999999999999996 11.25
  endloop
endfacet
facet normal 1.0 -0.0 -0.0
  outer loop
    vertex 49.0 46.0 21.0
    vertex 49.00000000000002 29.999999999999996 11.25
    vertex 49.0 46.0 0.0
  endloop
endfacet
facet normal -0.0 -1.0 -0.0
  outer loop
    vertex 49.0 0.0 21.0
    vertex 0.0 0.0 0.0
    vertex 49.0 0.0 0.0
  endloop
endfacet
facet normal -0.0 -1.0 -0.0
  outer loop
    vertex 0.0 0.0 0.0
    vertex 49.0 0.0 21.0
    vertex 0.0 0.0 21.0
  endloop
endfacet
facet normal -1.0 0.0 0.0
  outer loop
    vertex 0.0 0.0 21.0
    vertex 0.0 21.499999999999996 13.848076211353316
    vertex 0.0 0.0 0.0
  endloop
endfacet
facet normal -1.0 0.0 0.0
  outer loop
    vertex 0.0 21.499999999999996 13.848076211353316
    vertex 0.0 0.0 21.0
    vertex 0.0 22.223542864692433 14.147777478867203
  endloop
endfacet
facet normal -1.0 0.0 0.0
  outer loop
    vertex 0.0 22.223542864692433 14.147777478867203
    vertex 0.0 0.0 21.0
    vertex 0.0 46.0 21.0
  endloop
endfacet
facet normal -1.0 0.0 0.0
  outer loop
    vertex 0.0 0.0 0.0
    vertex 0.0 21.499999999999996 13.848076211353316
    vertex 0.0 20.878679656440355 13.371320343559642
  endloop
endfacet
facet normal -1.0 0.0 0.0
  outer loop
    vertex 0.0 0.0 0.0
    vertex 0.0 20.878679656440355 13.371320343559642
    vertex 0.0 20.40192378864668 12.75
  endloop
endfacet
facet normal -1.0 0.0 0.0
  outer loop
    vertex 0.0 0.0 0.0
    vertex 0.0 20.40192378864668 12.75
    vertex 0.0 20.10222252113279 12.026457135307561
  endloop
endfacet
facet normal -1.0 0.0 0.0
  outer loop
    vertex 0.0 0.0 0.0
    vertex 0.0 20.10222252113279 12.026457135307561
    vertex 0.0 19.999999999999996 11.25
  endloop
endfacet
facet normal -1.0 0.0 0.0
  outer loop
    vertex 0.0 22.223542864692433 14.147777478867203
    vertex 0.0 46.0 21.0
    vertex 0.0 22.999999999999996 14.250000000000002
  endloop
endfacet
facet normal -1.0 0.0 0.0
  outer loop
    vertex 0.0 22.999999999999996 14.250000000000002
    vertex 0.0 46.0 21.0
    vertex 0.0 23.776457135307556 14.147777478867207
  endloop
endfacet
facet normal -1.0 0.0 0.0
  outer loop
    vertex 0.0 23.776457135307556 14.147777478867207
    vertex 0.0 46.0 21.0
    vertex 0.0 24.499999999999993 13.848076211353316
  endloop
endfacet
facet normal -1.0 0.0 0.0
  outer loop
    vertex 0.0 24.499999999999993 13.848076211353316
    vertex 0.0 46.0 21.0
    vertex 0.0 25.12132034355964 13.371320343559644
  endloop
endfacet
facet normal -1.0 0.0 0.0
  outer loop
    vertex 0.0 25.12132034355964 13.371320343559644
    vertex 0.0 46.0 21.0
    vertex 0.0 25.598076211353316 12.750000000000002
  endloop
endfacet
facet normal -1.0 0.0 0.0
  outer loop
    vertex 0.0 25.598076211353316 12.750000000000002
    vertex 0.0 46.0 21.0
    vertex 0.0 25.8977774788672 12.026457135307565
  endloop
endfacet
facet normal -1.0 0.0 0.0
  outer loop
    vertex 0.0 25.8977774788672 12.026457135307565
    vertex 0.0 46.0 21.0
    vertex 0.0 25.999999999999996 11.25
  endloop
endfacet
facet normal -1.0 0.0 0.0
  outer loop
    vertex 0.0 0.0 0.0
    vertex 0.0 22.223542864692433 8.352222521132795
    vertex 0.0 46.0 0.0
  endloop
endfacet
facet normal -1.0 0.0 0.0
  outer loop
    vertex 0.0 22.223542864692433 8.352222521132795
    vertex 0.0 0.0 0.0
    vertex 0.0 21.499999999999996 8.651923788646684
  endloop
endfacet
facet normal -1.0 0.0 0.0
  outer loop
    vertex 0.0 21.499999999999996 8.651923788646684
    vertex 0.0 0.0 0.0
    vertex 0.0 20.878679656440355 9.128679656440356
  endloop
endfacet
facet normal -1.0 0.0 0.0
  outer loop
    vertex 0.0 20.878679656440355 9.128679656440356
    vertex 0.0 0.0 0.0
    vertex 0.0 20.401923788646684 9.749999999999998
  endloop
endfacet
facet normal -1.0 0.0 0.0
  outer loop
    vertex 0.0 20.401923788646684 9.749999999999998
    vertex 0.0 0.0 0.0
    vertex 0.0 20.10222252113279 10.473542864692439
  endloop
endfacet
facet normal -1.0 0.0 0.0
  outer loop
    vertex 0.0 20.10222252113279 10.473542864692439
    vertex 0.0 0.0 0.0
    vertex 0.0 19.999999999999996 11.25
  endloop
endfacet
facet normal -1.0 0.0 0.0
  outer loop
    vertex 0.0 46.0 0.0
    vertex 0.0 22.223542864692433 8.352222521132795
    vertex 0.0 22.999999999999996 8.25
  endloop
endfacet
facet normal -1.0 0.0 0.0
  outer loop
    vertex 0.0 46.0 0.0
    vertex 0.0 22.999999999999996 8.25
    vertex 0.0 23.77645713530756 8.352222521132795
  endloop
endfacet
facet normal -1.0 0.0 0.0
  outer loop
    vertex 0.0 46.0 0.0
    vertex 0.0 23.77645713530756 8.352222521132795
    vertex 0.0 24.499999999999996 8.651923788646684
  endloop
endfacet
facet normal -1.0 0.0 0.0
  outer loop
    vertex 0.0 46.0 0.0
    vertex 0.0 24.499999999999996 8.651923788646684
    vertex 0.0 25.12132034355964 9.128679656440356
  endloop
endfacet
facet normal -1.0 0.0 0.0
  outer loop
    vertex 0.0 46.0 0.0
    vertex 0.0 25.12132034355964 9.128679656440356
    vertex 0.0 25.598076211353316 9.75
  endloop
endfacet
facet normal -1.0 0.0 0.0
  outer loop
    vertex 0.0 46.0 0.0
    vertex 0.0 25.598076211353316 9.75
    vertex 0.0 25.8977774788672 10.473542864692439
  endloop
endfacet
facet normal -1.0 0.0 0.0
  outer loop
    vertex 0.0 46.0 0.0
    vertex 0.0 25.8977774788672 10.473542864692439
    vertex 0.0 25.999999999999996 11.25
  endloop
endfacet
facet normal -1.0 0.0 0.0
  outer loop
    vertex 0.0 46.0 0.0
    vertex 0.0 25.999999999999996 11.25
    vertex 0.0 46.0 21.0
  endloop
endfacet
facet normal -0.0 1.0 0.0
  outer loop
    vertex 0.0 46.0 21.0
    vertex 49.0 46.0 0.0
    vertex 0.0 46.0 0.0
  endloop
endfacet
facet normal -0.0 1.0 0.0
  outer loop
    vertex 49.0 46.0 0.0
    vertex 0.0 46.0 21.0
    vertex 49.0 46.0 21.0
  endloop
endfacet
facet normal -0.0 -1.0 -0.0
  outer loop
    vertex 47.5 44.5 21.0
    vertex 1.5000000000000002 44.5 1.5
    vertex 47.5 44.5 1.5
  endloop
endfacet
facet normal -0.0 -1.0 -0.0
  outer loop
    vertex 1.5000000000000002 44.5 1.5
    vertex 47.5 44.5 21.0
    vertex 1.5000000000000002 44.5 21.0
  endloop
endfacet
facet normal 1.0 -0.0 -0.0
  outer loop
    vertex 1.5000000000000002 25.6875 -8.459899447643692e-15
    vertex 1.5000000000000002 22.999999999999996 1.5
    vertex 1.5000000000000002 22.999999999999996 -8.459899447643692e-15
  endloop
endfacet
facet normal 1.0 -0.0 -0.0
  outer loop
    vertex 1.5000000000000002 22.999999999999996 1.5
    vertex 1.5000000000000002 25.6875 -8.459899447643692e-15
    vertex 1.5000000000000002 22.999999999999996 8.25
  endloop
endfacet
facet normal 1.0 -0.0 -0.0
  outer loop
    vertex 1.5000000000000002 22.999999999999996 8.25
    vertex 1.5000000000000002 25.6875 -8.459899447643692e-15
    vertex 1.5000000000000002 23.77645713530756 8.352222521132795
  endloop
endfacet
facet normal 1.0 -0.0 -0.0
  outer loop
    vertex 1.5000000000000002 23.77645713530756 8.352222521132795
    vertex 1.5000000000000002 25.6875 -8.459899447643692e-15
    vertex 1.5000000000000002 24.499999999999996 8.651923788646684
  endloop
endfacet
facet normal 1.0 -0.0 -0.0
  outer loop
    vertex 1.5000000000000002 24.499999999999996 8.651923788646684
    vertex 1.5000000000000002 25.6875 -8.459899447643692e-15
    vertex 1.5000000000000002 25.12132034355964 9.128679656440356
  endloop
endfacet
facet normal 1.0 -0.0 -0.0
  outer loop
    vertex 1.5000000000000002 25.12132034355964 9.128679656440356
    vertex 1.5000000000000002 25.6875 -8.459899447643692e-15
    vertex 1.5000000000000002 25.598076211353316 9.75
  endloop
endfacet
facet normal 1.0 -0.0 -0.0
  outer loop
    vertex 1.5000000000000002 25.598076211353316 9.75
    vertex 1.5000000000000002 25.6875 -8.459899447643692e-15
    vertex 1.5000000000000002 25.6875 1.5
  endloop
endfacet
facet normal 1.0 -0.0 -0.0
  outer loop
    vertex 1.5000000000000002 25.598076211353316 9.75
    vertex 1.5000000000000002 25.6875 1.5
    vertex 1.5000000000000002 25.8977774788672 10.473542864692439
  endloop
endfacet
facet normal 1.0 -0.0 -0.0
  outer loop
    vertex 1.5000000000000002 25.8977774788672 10.473542864692439
    vertex 1.5000000000000002 25.6875 1.5
    vertex 1.5000000000000002 28.375 1.5
  endloop
endfacet
facet normal 1.0 -0.0 -0.0
  outer loop
    vertex 1.5000000000000002 25.8977774788672 10.473542864692439
    vertex 1.5000000000000002 28.375 1.5
    vertex 1.5000000000000002 25.999999999999996 11.25
  endloop
endfacet
facet normal 1.0 -0.0 -0.0
  outer loop
    vertex 1.5000000000000002 31.062499999999996 4.229949723821846e-15
    vertex 1.5000000000000002 28.375 1.5
    vertex 1.5000000000000002 28.375 4.229949723821846e-15
  endloop
endfacet
facet normal 1.0 -0.0 -0.0
  outer loop
    vertex 1.5000000000000002 36.43749999999999 0.0
    vertex 1.5000000000000002 33.74999999999999 1.5
    vertex 1.5000000000000002 33.74999999999999 0.0
  endloop
endfacet
facet normal 1.0 -0.0 -0.0
  outer loop
    vertex 1.5000000000000002 41.74621699863981 5.639932965095795e-15
    vertex 1.5000000000000002 39.12499999999999 1.5
    vertex 1.5000000000000002 39.12499999999999 5.639932965095795e-15
  endloop
endfacet
facet normal 1.0 -0.0 -0.0
  outer loop
    vertex 1.5000000000000002 1.5 21.0
    vertex 1.5000000000000002 22.223542864692433 14.147777478867203
    vertex 1.5000000000000002 44.5 21.0
  endloop
endfacet
facet normal 1.0 -0.0 -0.0
  outer loop
    vertex 1.5000000000000002 22.223542864692433 14.147777478867203
    vertex 1.5000000000000002 1.5 21.0
    vertex 1.5000000000000002 21.499999999999996 13.848076211353316
  endloop
endfacet
facet normal 1.0 -0.0 -0.0
  outer loop
    vertex 1.5000000000000002 21.499999999999996 13.848076211353316
    vertex 1.5000000000000002 1.5 21.0
    vertex 1.5000000000000002 20.878679656440355 13.371320343559642
  endloop
endfacet
facet normal 1.0 -0.0 -0.0
  outer loop
    vertex 1.5000000000000002 20.878679656440355 13.371320343559642
    vertex 1.5000000000000002 1.5 21.0
    vertex 1.5000000000000002 20.40192378864668 12.75
  endloop
endfacet
facet normal 1.0 -0.0 -0.0
  outer loop
    vertex 1.5000000000000002 20.40192378864668 12.75
    vertex 1.5000000000000002 1.5 21.0
    vertex 1.5000000000000002 20.10222252113279 12.026457135307561
  endloop
endfacet
facet normal 1.0 -0.0 -0.0
  outer loop
    vertex 1.5000000000000002 20.10222252113279 12.026457135307561
    vertex 1.5000000000000002 1.5 21.0
    vertex 1.5000000000000002 19.999999999999996 11.25
  endloop
endfacet
facet normal 1.0 -0.0 -0.0
  outer loop
    vertex 1.5000000000000002 44.5 21.0
    vertex 1.5000000000000002 22.223542864692433 14.147777478867203
    vertex 1.5000000000000002 22.999999999999996 14.250000000000002
  endloop
endfacet
facet normal 1.0 -0.0 -0.0
  outer loop
    vertex 1.5000000000000002 44.5 21.0
    vertex 1.5000000000000002 22.999999999999996 14.250000000000002
    vertex 1.5000000000000002 23.776457135307556 14.147777478867207
  endloop
endfacet
facet normal 1.0 -0.0 -0.0
  outer loop
    vertex 1.5000000000000002 44.5 21.0
    vertex 1.5000000000000002 23.776457135307556 14.147777478867207
    vertex 1.5000000000000002 24.499999999999993 13.848076211353316
  endloop
endfacet
facet normal 1.0 -0.0 -0.0
  outer loop
    vertex 1.5000000000000002 44.5 21.0
    vertex 1.5000000000000002 24.499999999999993 13.848076211353316
    vertex 1.5000000000000002 25.12132034355964 13.371320343559644
  endloop
endfacet
facet normal 1.0 -0.0 -0.0
  outer loop
    vertex 1.5000000000000002 44.5 21.0
    vertex 1.5000000000000002 25.12132034355964 13.371320343559644
    vertex 1.5000000000000002 25.598076211353316 12.750000000000002
  endloop
endfacet
facet normal 1.0 -0.0 -0.0
  outer loop
    vertex 1.5000000000000002 44.5 21.0
    vertex 1.5000000000000002 25.598076211353316 12.750000000000002
    vertex 1.5000000000000002 25.8977774788672 12.026457135307565
  endloop
endfacet
facet normal 1.0 -0.0 -0.0
  outer loop
    vertex 1.5000000000000002 44.5 21.0
    vertex 1.5000000000000002 25.8977774788672 12.026457135307565
    vertex 1.5000000000000002 25.999999999999996 11.25
  endloop
endfacet
facet normal 1.0 -0.0 -0.0
  outer loop
    vertex 1.5000000000000002 44.5 21.0
    vertex 1.5000000000000002 25.999999999999996 11.25
    vertex 1.5000000000000002 28.375 1.5
  endloop
endfacet
facet normal 1.0 -0.0 -0.0
  outer loop
    vertex 1.5000000000000002 44.5 21.0
    vertex 1.5000000000000002 28.375 1.5
    vertex 1.5000000000000002 31.062499999999996 1.5
  endloop
endfacet
facet normal 1.0 -0.0 -0.0
  outer loop
    vertex 1.5000000000000002 31.062499999999996 1.5
    vertex 1.5000000000000002 28.375 1.5
    vertex 1.5000000000000002 31.062499999999996 4.229949723821846e-15
  endloop
endfacet
facet normal 1.0 -0.0 -0.0
  outer loop
    vertex 1.5000000000000002 44.5 21.0
    vertex 1.5000000000000002 31.062499999999996 1.5
    vertex 1.5000000000000002 33.74999999999999 1.5
  endloop
endfacet
facet normal 1.0 -0.0 -0.0
  outer loop
    vertex 1.5000000000000002 44.5 21.0
    vertex 1.5000000000000002 33.74999999999999 1.5
    vertex 1.5000000000000002 36.43749999999999 1.5
  endloop
endfacet
facet normal 1.0 -0.0 -0.0
  outer loop
    vertex 1.5000000000000002 36.43749999999999 1.5
    vertex 1.5000000000000002 33.74999999999999 1.5
    vertex 1.5000000000000002 36.43749999999999 0.0
  endloop
endfacet
facet normal 1.0 -0.0 -0.0
  outer loop
    vertex 1.5000000000000002 44.5 21.0
    vertex 1.5000000000000002 36.43749999999999 1.5
    vertex 1.5000000000000002 39.12499999999999 1.5
  endloop
endfacet
facet normal 1.0 -0.0 -0.0
  outer loop
    vertex 1.5000000000000002 44.5 21.0
    vertex 1.5000000000000002 39.12499999999999 1.5
    vertex 1.5000000000000002 41.74621699863981 1.5
  endloop
endfacet
facet normal 1.0 -0.0 -0.0
  outer loop
    vertex 1.5000000000000002 41.74621699863981 1.5
    vertex 1.5000000000000002 39.12499999999999 1.5
    vertex 1.5000000000000002 41.74621699863981 5.639932965095795e-15
  endloop
endfacet
facet normal 1.0 -0.0 -0.0
  outer loop
    vertex 1.5000000000000002 44.5 21.0
    vertex 1.5000000000000002 41.74621699863981 1.5
    vertex 1.5000000000000002 44.5 1.5
  endloop
endfacet
facet normal 1.0 -0.0 -0.0
  outer loop
    vertex 1.5000000000000002 22.999999999999996 1.5
    vertex 1.5000000000000002 1.5 21.0
    vertex 1.5000000000000002 1.5 1.5
  endloop
endfacet
facet normal 1.0 -0.0 -0.0
  outer loop
    vertex 1.5000000000000002 1.5 21.0
    vertex 1.5000000000000002 22.999999999999996 1.5
    vertex 1.5000000000000002 20.10222252113279 10.473542864692439
  endloop
endfacet
facet normal 1.0 -0.0 -0.0
  outer loop
    vertex 1.5000000000000002 1.5 21.0
    vertex 1.5000000000000002 20.10222252113279 10.473542864692439
    vertex 1.5000000000000002 19.999999999999996 11.25
  endloop
endfacet
facet normal 1.0 -0.0 -0.0
  outer loop
    vertex 1.5000000000000002 20.10222252113279 10.473542864692439
    vertex 1.5000000000000002 22.999999999999996 1.5
    vertex 1.5000000000000002 20.401923788646684 9.749999999999998
  endloop
endfacet
facet normal 1.0 -0.0 -0.0
  outer loop
    vertex 1.5000000000000002 20.401923788646684 9.749999999999998
    vertex 1.5000000000000002 22.999999999999996 1.5
    vertex 1.5000000000000002 20.878679656440355 9.128679656440356
  endloop
endfacet
facet normal 1.0 -0.0 -0.0
  outer loop
    vertex 1.5000000000000002 20.878679656440355 9.128679656440356
    vertex 1.5000000000000002 22.999999999999996 1.5
    vertex 1.5000000000000002 21.499999999999996 8.651923788646684
  endloop
endfacet
facet normal 1.0 -0.0 -0.0
  outer loop
    vertex 1.5000000000000002 21.499999999999996 8.651923788646684
    vertex 1.5000000000000002 22.999999999999996 1.5
    vertex 1.5000000000000002 22.223542864692433 8.352222521132795
  endloop
endfacet
facet normal 1.0 -0.0 -0.0
  outer loop
    vertex 1.5000000000000002 22.223542864692433 8.352222521132795
    vertex 1.5000000000000002 22.999999999999996 1.5
    vertex 1.5000000000000002 22.999999999999996 8.25
  endloop
endfacet
facet normal -0.0 1.0 -0.0
  outer loop
    vertex 1.5000000000000002 1.5 21.0
    vertex 47.5 1.5 1.5
    vertex 1.5000000000000002 1.5 1.5
  endloop
endfacet
facet normal -0.0 1.0 -0.0
  outer loop
    vertex 47.5 1.5 1.5
    vertex 1.5000000000000002 1.5 21.0
    vertex 47.5 1.5 21.0
  endloop
endfacet
facet normal -2.665068224439609e-33 -1.3010491235768007e-32 1.0
  outer loop
    vertex 47.5 1.5 1.5
    vertex 1.5000000000000002 22.999999999999996 1.5
    vertex 1.5000000000000002 1.5 1.5
  endloop
endfacet
facet normal -2.665068224439609e-33 -1.3010491235768007e-32 1.0
  outer loop
    vertex 1.5000000000000002 22.999999999999996 1.5
    vertex 47.5 1.5 1.5
    vertex 24.5 22.999999999999996 1.5
  endloop
endfacet
facet normal -2.665068224439609e-33 -1.3010491235768007e-32 1.0
  outer loop
    vertex 24.5 22.999999999999996 1.5
    vertex 47.5 1.5 1.5
    vertex 24.5 25.6875 1.5
  endloop
endfacet
facet normal -2.665068224439609e-33 -1.3010491235768007e-32 1.0
  outer loop
    vertex 24.5 25.6875 1.5
    vertex 47.5 1.5 1.5
    vertex 24.5 28.375 1.5
  endloop
endfacet
facet normal -2.665068224439609e-33 -1.3010491235768007e-32 1.0
  outer loop
    vertex 24.5 28.375 1.5
    vertex 47.5 1.5 1.5
    vertex 24.5 31.062499999999996 1.5
  endloop
endfacet
facet normal -2.665068224439609e-33 -1.3010491235768007e-32 1.0
  outer loop
    vertex 24.5 31.062499999999996 1.5
    vertex 47.5 1.5 1.5
    vertex 24.5 33.74999999999999 1.5
  endloop
endfacet
facet normal -2.665068224439609e-33 -1.3010491235768007e-32 1.0
  outer loop
    vertex 24.5 33.74999999999999 1.5
    vertex 47.5 1.5 1.5
    vertex 24.5 36.43749999999999 1.5
  endloop
endfacet
facet normal -2.665068224439609e-33 -1.3010491235768007e-32 1.0
  outer loop
    vertex 24.5 36.43749999999999 1.5
    vertex 47.5 1.5 1.5
    vertex 24.5 39.12499999999999 1.5
  endloop
endfacet
facet normal -2.665068224439609e-33 -1.3010491235768007e-32 1.0
  outer loop
    vertex 24.5 39.12499999999999 1.5
    vertex 47.5 1.5 1.5
    vertex 24.5 41.74621699863981 1.5
  endloop
endfacet
facet normal -2.665068224439609e-33 -1.3010491235768007e-32 1.0
  outer loop
    vertex 24.5 41.74621699863981 1.5
    vertex 1.5000000000000002 44.5 1.5
    vertex 1.5000000000000002 41.74621699863981 1.5
  endloop
endfacet
facet normal -2.665068224439609e-33 -1.3010491235768007e-32 1.0
  outer loop
    vertex 1.5000000000000002 44.5 1.5
    vertex 24.5 41.74621699863981 1.5
    vertex 47.5 44.5 1.5
  endloop
endfacet
facet normal -2.665068224439609e-33 -1.3010491235768007e-32 1.0
  outer loop
    vertex 47.5 44.5 1.5
    vertex 24.5 41.74621699863981 1.5
    vertex 47.5 1.5 1.5
  endloop
endfacet
facet normal -2.665068224439609e-33 -1.3010491235768007e-32 1.0
  outer loop
    vertex 24.5 36.43749999999999 1.5
    vertex 1.5000000000000002 39.12499999999999 1.5
    vertex 1.5000000000000002 36.43749999999999 1.5
  endloop
endfacet
facet normal -2.665068224439609e-33 -1.3010491235768007e-32 1.0
  outer loop
    vertex 1.5000000000000002 39.12499999999999 1.5
    vertex 24.5 36.43749999999999 1.5
    vertex 24.5 39.12499999999999 1.5
  endloop
endfacet
facet normal -2.665068224439609e-33 -1.3010491235768007e-32 1.0
  outer loop
    vertex 24.5 31.062499999999996 1.5
    vertex 1.5000000000000002 33.74999999999999 1.5
    vertex 1.5000000000000002 31.062499999999996 1.5
  endloop
endfacet
facet normal -2.665068224439609e-33 -1.3010491235768007e-32 1.0
  outer loop
    vertex 1.5000000000000002 33.74999999999999 1.5
    vertex 24.5 31.062499999999996 1.5
    vertex 24.5 33.74999999999999 1.5
  endloop
endfacet
facet normal -2.665068224439609e-33 -1.3010491235768007e-32 1.0
  outer loop
    vertex 24.5 25.6875 1.5
    vertex 1.5000000000000002 28.375 1.5
    vertex 1.5000000000000002 25.6875 1.5
  endloop
endfacet
facet normal -2.665068224439609e-33 -1.3010491235768007e-32 1.0
  outer loop
    vertex 1.5000000000000002 28.375 1.5
    vertex 24.5 25.6875 1.5
    vertex 24.5 28.375 1.5
  endloop
endfacet
facet normal -1.0 0.0 -0.0
  outer loop
    vertex 24.5 25.6875 1.5
    vertex 24.5 22.999999999999996 -8.459899447643692e-15
    vertex 24.5 22.999999999999996 1.5
  endloop
endfacet
facet normal -1.0 0.0 -0.0
  outer loop
    vertex 24.5 22.999999999999996 -8.459899447643692e-15
    vertex 24.5 25.6875 1.5
    vertex 24.5 25.6875 -8.459899447643692e-15
  endloop
endfacet
facet normal -0.0 -1.0 -0.0
  outer loop
    vertex 24.5 25.6875 1.5
    vertex 1.5000000000000002 25.6875 -8.459899447643692e-15
    vertex 24.5 25.6875 -8.459899447643692e-15
  endloop
endfacet
facet normal -0.0 -1.0 -0.0
  outer loop
    vertex 1.5000000000000002 25.6875 -8.459899447643692e-15
    vertex 24.5 25.6875 1.5
    vertex 1.5000000000000002 25.6875 1.5
  endloop
endfacet
facet normal -0.0 1.0 -0.0
  outer loop
    vertex 1.5000000000000002 22.999999999999996 1.5
    vertex 24.5 22.999999999999996 -8.459899447643692e-15
    vertex 1.5000000000000002 22.999999999999996 -8.459899447643692e-15
  endloop
endfacet
facet normal -0.0 1.0 -0.0
  outer loop
    vertex 24.5 22.999999999999996 -8.459899447643692e-15
    vertex 1.5000000000000002 22.999999999999996 1.5
    vertex 24.5 22.999999999999996 1.5
  endloop
endfacet
facet normal -1.0 0.0 -0.0
  outer loop
    vertex 24.5 31.062499999999996 1.5
    vertex 24.5 28.375 4.229949723821846e-15
    vertex 24.5 28.375 1.5
  endloop
endfacet
facet normal -1.0 0.0 -0.0
  outer loop
    vertex 24.5 28.375 4.229949723821846e-15
    vertex 24.5 31.062499999999996 1.5
    vertex 24.5 31.062499999999996 4.229949723821846e-15
  endloop
endfacet
facet normal -0.0 -1.0 -0.0
  outer loop
    vertex 24.5 31.062499999999996 1.5
    vertex 1.5000000000000002 31.062499999999996 4.229949723821846e-15
    vertex 24.5 31.062499999999996 4.229949723821846e-15
  endloop
endfacet
facet normal -0.0 -1.0 -0.0
  outer loop
    vertex 1.5000000000000002 31.062499999999996 4.229949723821846e-15
    vertex 24.5 31.062499999999996 1.5
    vertex 1.5000000000000002 31.062499999999996 1.5
  endloop
endfacet
facet normal -0.0 1.0 -0.0
  outer loop
    vertex 1.5000000000000002 28.375 1.5
    vertex 24.5 28.375 4.229949723821846e-15
    vertex 1.5000000000000002 28.375 4.229949723821846e-15
  endloop
endfacet
facet normal -0.0 1.0 -0.0
  outer loop
    vertex 24.5 28.375 4.229949723821846e-15
    vertex 1.5000000000000002 28.375 1.5
    vertex 24.5 28.375 1.5
  endloop
endfacet
facet normal -1.0 0.0 -0.0
  outer loop
    vertex 24.5 36.43749999999999 1.5
    vertex 24.5 33.74999999999999 0.0
    vertex 24.5 33.74999999999999 1.5
  endloop
endfacet
facet normal -1.0 0.0 -0.0
  outer loop
    vertex 24.5 33.74999999999999 0.0
    vertex 24.5 36.43749999999999 1.5
    vertex 24.5 36.43749999999999 0.0
  endloop
endfacet
facet normal -0.0 -1.0 -0.0
  outer loop
    vertex 24.5 36.43749999999999 1.5
    vertex 1.5000000000000002 36.43749999999999 0.0
    vertex 24.5 36.43749999999999 0.0
  endloop
endfacet
facet normal -0.0 -1.0 -0.0
  outer loop
    vertex 1.5000000000000002 36.43749999999999 0.0
    vertex 24.5 36.43749999999999 1.5
    vertex 1.5000000000000002 36.43749999999999 1.5
  endloop
endfacet
facet normal -0.0 1.0 -0.0
  outer loop
    vertex 1.5000000000000002 33.74999999999999 1.5
    vertex 24.5 33.74999999999999 0.0
    vertex 1.5000000000000002 33.74999999999999 0.0
  endloop
endfacet
facet normal -0.0 1.0 -0.0
  outer loop
    vertex 24.5 33.74999999999999 0.0
    vertex 1.5000000000000002 33.74999999999999 1.5
    vertex 24.5 33.74999999999999 1.5
  endloop
endfacet
facet normal -1.0 0.0 -0.0
  outer loop
    vertex 24.5 41.74621699863981 1.5
    vertex 24.5 39.12499999999999 5.639932965095795e-15
    vertex 24.5 39.12499999999999 1.5
  endloop
endfacet
facet normal -1.0 0.0 -0.0
  outer loop
    vertex 24.5 39.12499999999999 5.639932965095795e-15
    vertex 24.5 41.74621699863981 1.5
    vertex 24.5 41.74621699863981 5.639932965095795e-15
  endloop
endfacet
facet normal -0.0 -1.0 -0.0
  outer loop
    vertex 24.5 41.74621699863981 1.5
    vertex 1.5000000000000002 41.74621699863981 5.639932965095795e-15
    vertex 24.5 41.74621699863981 5.639932965095795e-15
  endloop
endfacet
facet normal -0.0 -1.0 -0.0
  outer loop
    vertex 1.5000000000000002 41.74621699863981 5.639932965095795e-15
    vertex 24.5 41.74621699863981 1.5
    vertex 1.5000000000000002 41.74621699863981 1.5
  endloop
endfacet
facet normal -0.0 1.0 -0.0
  outer loop
    vertex 1.5000000000000002 39.12499999999999 1.5
    vertex 24.5 39.12499999999999 5.639932965095795e-15
    vertex 1.5000000000000002 39.12499999999999 5.639932965095795e-15
  endloop
endfacet
facet normal -0.0 1.0 -0.0
  outer loop
    vertex 24.5 39.12499999999999 5.639932965095795e-15
    vertex 1.5000000000000002 39.12499999999999 1.5
    vertex 24.5 39.12499999999999 1.5
  endloop
endfacet
facet normal 0.0 0.13052619222005168 0.9914448613738105
  outer loop
    vertex 1.5000000000000002 22.223542864692433 8.352222521132795
    vertex 0.0 22.999999999999996 8.25
    vertex 0.0 22.223542864692433 8.352222521132795
  endloop
endfacet
facet normal 0.0 0.13052619222005168 0.9914448613738105
  outer loop
    vertex 0.0 22.999999999999996 8.25
    vertex 1.5000000000000002 22.223542864692433 8.352222521132795
    vertex 1.5000000000000002 22.999999999999996 8.25
  endloop
endfacet
facet normal -0.0 -0.13052619222005168 0.9914448613738105
  outer loop
    vertex 1.5000000000000002 22.999999999999996 8.25
    vertex 0.0 23.77645713530756 8.352222521132795
    vertex 0.0 22.999999999999996 8.25
  endloop
endfacet
facet normal -0.0 -0.13052619222005168 0.9914448613738105
  outer loop
    vertex 0.0 23.77645713530756 8.352222521132795
    vertex 1.5000000000000002 22.999999999999996 8.25
    vertex 1.5000000000000002 23.77645713530756 8.352222521132795
  endloop
endfacet
facet normal -0.0 -0.3826834323650898 0.9238795325112867
  outer loop
    vertex 1.5000000000000002 23.77645713530756 8.352222521132795
    vertex 0.0 24.499999999999996 8.651923788646684
    vertex 0.0 23.77645713530756 8.352222521132795
  endloop
endfacet
facet normal -0.0 -0.3826834323650898 0.9238795325112867
  outer loop
    vertex 0.0 24.499999999999996 8.651923788646684
    vertex 1.5000000000000002 23.77645713530756 8.352222521132795
    vertex 1.5000000000000002 24.499999999999996 8.651923788646684
  endloop
endfacet
facet normal -0.0 -0.6087614290087202 0.7933533402912355
  outer loop
    vertex 1.5000000000000002 24.499999999999996 8.651923788646684
    vertex 0.0 25.12132034355964 9.128679656440356
    vertex 0.0 24.499999999999996 8.651923788646684
  endloop
endfacet
facet normal -0.0 -0.6087614290087202 0.7933533402912355
  outer loop
    vertex 0.0 25.12132034355964 9.128679656440356
    vertex 1.5000000000000002 24.499999999999996 8.651923788646684
    vertex 1.5000000000000002 25.12132034355964 9.128679656440356
  endloop
endfacet
facet normal -0.0 -0.7933533402912346 0.6087614290087217
  outer loop
    vertex 1.5000000000000002 25.598076211353316 9.75
    vertex 0.0 25.12132034355964 9.128679656440356
    vertex 1.5000000000000002 25.12132034355964 9.128679656440356
  endloop
endfacet
facet normal -0.0 -0.7933533402912346 0.6087614290087217
  outer loop
    vertex 0.0 25.12132034355964 9.128679656440356
    vertex 1.5000000000000002 25.598076211353316 9.75
    vertex 0.0 25.598076211353316 9.75
  endloop
endfacet
facet normal -0.0 -0.9238795325112874 0.3826834323650882
  outer loop
    vertex 1.5000000000000002 25.8977774788672 10.473542864692439
    vertex 0.0 25.598076211353316 9.75
    vertex 1.5000000000000002 25.598076211353316 9.75
  endloop
endfacet
facet normal -0.0 -0.9238795325112874 0.3826834323650882
  outer loop
    vertex 0.0 25.598076211353316 9.75
    vertex 1.5000000000000002 25.8977774788672 10.473542864692439
    vertex 0.0 25.8977774788672 10.473542864692439
  endloop
endfacet
facet normal -0.0 -0.9914448613738105 0.13052619222005168
  outer loop
    vertex 1.5000000000000002 25.999999999999996 11.25
    vertex 0.0 25.8977774788672 10.473542864692439
    vertex 1.5000000000000002 25.8977774788672 10.473542864692439
  endloop
endfacet
facet normal -0.0 -0.9914448613738105 0.13052619222005168
  outer loop
    vertex 0.0 25.8977774788672 10.473542864692439
    vertex 1.5000000000000002 25.999999999999996 11.25
    vertex 0.0 25.999999999999996 11.25
  endloop
endfacet
facet normal -0.0 -0.9914448613738105 -0.13052619222005146
  outer loop
    vertex 1.5000000000000002 25.8977774788672 12.026457135307565
    vertex 0.0 25.999999999999996 11.25
    vertex 1.5000000000000002 25.999999999999996 11.25
  endloop
endfacet
facet normal -0.0 -0.9914448613738105 -0.13052619222005146
  outer loop
    vertex 0.0 25.999999999999996 11.25
    vertex 1.5000000000000002 25.8977774788672 12.026457135307565
    vertex 0.0 25.8977774788672 12.026457135307565
  endloop
endfacet
facet normal -0.0 -0.9238795325112874 -0.3826834323650882
  outer loop
    vertex 1.5000000000000002 25.598076211353316 12.750000000000002
    vertex 0.0 25.8977774788672 12.026457135307565
    vertex 1.5000000000000002 25.8977774788672 12.026457135307565
  endloop
endfacet
facet normal -0.0 -0.9238795325112874 -0.3826834323650882
  outer loop
    vertex 0.0 25.8977774788672 12.026457135307565
    vertex 1.5000000000000002 25.598076211353316 12.750000000000002
    vertex 0.0 25.598076211353316 12.750000000000002
  endloop
endfacet
facet normal -0.0 -0.7933533402912339 -0.6087614290087225
  outer loop
    vertex 1.5000000000000002 25.12132034355964 13.371320343559644
    vertex 0.0 25.598076211353316 12.750000000000002
    vertex 1.5000000000000002 25.598076211353316 12.750000000000002
  endloop
endfacet
facet normal -0.0 -0.7933533402912339 -0.6087614290087225
  outer loop
    vertex 0.0 25.598076211353316 12.750000000000002
    vertex 1.5000000000000002 25.12132034355964 13.371320343559644
    vertex 0.0 25.12132034355964 13.371320343559644
  endloop
endfacet
facet normal -0.0 -0.6087614290087184 -0.7933533402912368
  outer loop
    vertex 1.5000000000000002 25.12132034355964 13.371320343559644
    vertex 0.0 24.499999999999993 13.848076211353316
    vertex 0.0 25.12132034355964 13.371320343559644
  endloop
endfacet
facet normal -0.0 -0.6087614290087184 -0.7933533402912368
  outer loop
    vertex 0.0 24.499999999999993 13.848076211353316
    vertex 1.5000000000000002 25.12132034355964 13.371320343559644
    vertex 1.5000000000000002 24.499999999999993 13.848076211353316
  endloop
endfacet
facet normal -0.0 -0.38268343236509134 -0.9238795325112862
  outer loop
    vertex 1.5000000000000002 24.499999999999993 13.848076211353316
    vertex 0.0 23.776457135307556 14.147777478867207
    vertex 0.0 24.499999999999993 13.848076211353316
  endloop
endfacet
facet normal -0.0 -0.38268343236509134 -0.9238795325112862
  outer loop
    vertex 0.0 23.776457135307556 14.147777478867207
    vertex 1.5000000000000002 24.499999999999993 13.848076211353316
    vertex 1.5000000000000002 23.776457135307556 14.147777478867207
  endloop
endfacet
facet normal -0.0 -0.13052619222005216 -0.9914448613738104
  outer loop
    vertex 1.5000000000000002 23.776457135307556 14.147777478867207
    vertex 0.0 22.999999999999996 14.250000000000002
    vertex 0.0 23.776457135307556 14.147777478867207
  endloop
endfacet
facet normal -0.0 -0.13052619222005216 -0.9914448613738104
  outer loop
    vertex 0.0 22.999999999999996 14.250000000000002
    vertex 1.5000000000000002 23.776457135307556 14.147777478867207
    vertex 1.5000000000000002 22.999999999999996 14.250000000000002
  endloop
endfacet
facet normal -0.0 0.13052619222005474 -0.9914448613738099
  outer loop
    vertex 1.5000000000000002 22.999999999999996 14.250000000000002
    vertex 0.0 22.223542864692433 14.147777478867203
    vertex 0.0 22.999999999999996 14.250000000000002
  endloop
endfacet
facet normal -0.0 0.13052619222005474 -0.9914448613738099
  outer loop
    vertex 0.0 22.223542864692433 14.147777478867203
    vertex 1.5000000000000002 22.999999999999996 14.250000000000002
    vertex 1.5000000000000002 22.223542864692433 14.147777478867203
  endloop
endfacet
facet normal -0.0 0.3826834323650895 -0.9238795325112868
  outer loop
    vertex 1.5000000000000002 22.223542864692433 14.147777478867203
    vertex 0.0 21.499999999999996 13.848076211353316
    vertex 0.0 22.223542864692433 14.147777478867203
  endloop
endfacet
facet normal -0.0 0.3826834323650895 -0.9238795325112868
  outer loop
    vertex 0.0 21.499999999999996 13.848076211353316
    vertex 1.5000000000000002 22.223542864692433 14.147777478867203
    vertex 1.5000000000000002 21.499999999999996 13.848076211353316
  endloop
endfacet
facet normal -0.0 0.6087614290087225 -0.7933533402912339
  outer loop
    vertex 1.5000000000000002 21.499999999999996 13.848076211353316
    vertex 0.0 20.878679656440355 13.371320343559642
    vertex 0.0 21.499999999999996 13.848076211353316
  endloop
endfacet
facet normal -0.0 0.6087614290087225 -0.7933533402912339
  outer loop
    vertex 0.0 20.878679656440355 13.371320343559642
    vertex 1.5000000000000002 21.499999999999996 13.848076211353316
    vertex 1.5000000000000002 20.878679656440355 13.371320343559642
  endloop
endfacet
facet normal -0.0 0.7933533402912339 -0.6087614290087225
  outer loop
    vertex 0.0 20.878679656440355 13.371320343559642
    vertex 1.5000000000000002 20.40192378864668 12.75
    vertex 0.0 20.40192378864668 12.75
  endloop
endfacet
facet normal -0.0 0.7933533402912339 -0.6087614290087225
  outer loop
    vertex 1.5000000000000002 20.40192378864668 12.75
    vertex 0.0 20.878679656440355 13.371320343559642
    vertex 1.5000000000000002 20.878679656440355 13.371320343559642
  endloop
endfacet
facet normal -0.0 0.9238795325112874 -0.3826834323650882
  outer loop
    vertex 0.0 20.40192378864668 12.75
    vertex 1.5000000000000002 20.10222252113279 12.026457135307561
    vertex 0.0 20.10222252113279 12.026457135307561
  endloop
endfacet
facet normal -0.0 0.9238795325112874 -0.3826834323650882
  outer loop
    vertex 1.5000000000000002 20.10222252113279 12.026457135307561
    vertex 0.0 20.40192378864668 12.75
    vertex 1.5000000000000002 20.40192378864668 12.75
  endloop
endfacet
facet normal -0.0 0.9914448613738104 -0.1305261922200519
  outer loop
    vertex 0.0 20.10222252113279 12.026457135307561
    vertex 1.5000000000000002 19.999999999999996 11.25
    vertex 0.0 19.999999999999996 11.25
  endloop
endfacet
facet normal -0.0 0.9914448613738104 -0.1305261922200519
  outer loop
    vertex 1.5000000000000002 19.999999999999996 11.25
    vertex 0.0 20.10222252113279 12.026457135307561
    vertex 1.5000000000000002 20.10222252113279 12.026457135307561
  endloop
endfacet
facet normal 0.0 0.9914448613738105 0.13052619222005168
  outer loop
    vertex 0.0 19.999999999999996 11.25
    vertex 1.5000000000000002 20.10222252113279 10.473542864692439
    vertex 0.0 20.10222252113279 10.473542864692439
  endloop
endfacet
facet normal 0.0 0.9914448613738105 0.13052619222005168
  outer loop
    vertex 1.5000000000000002 20.10222252113279 10.473542864692439
    vertex 0.0 19.999999999999996 11.25
    vertex 1.5000000000000002 19.999999999999996 11.25
  endloop
endfacet
facet normal 0.0 0.9238795325112865 0.3826834323650908
  outer loop
    vertex 0.0 20.10222252113279 10.473542864692439
    vertex 1.5000000000000002 20.401923788646684 9.749999999999998
    vertex 0.0 20.401923788646684 9.749999999999998
  endloop
endfacet
facet normal 0.0 0.9238795325112865 0.3826834323650908
  outer loop
    vertex 1.5000000000000002 20.401923788646684 9.749999999999998
    vertex 0.0 20.10222252113279 10.473542864692439
    vertex 1.5000000000000002 20.10222252113279 10.473542864692439
  endloop
endfacet
facet normal 0.0 0.7933533402912355 0.6087614290087202
  outer loop
    vertex 0.0 20.401923788646684 9.749999999999998
    vertex 1.5000000000000002 20.878679656440355 9.128679656440356
    vertex 0.0 20.878679656440355 9.128679656440356
  endloop
endfacet
facet normal 0.0 0.7933533402912355 0.6087614290087202
  outer loop
    vertex 1.5000000000000002 20.878679656440355 9.128679656440356
    vertex 0.0 20.401923788646684 9.749999999999998
    vertex 1.5000000000000002 20.401923788646684 9.749999999999998
  endloop
endfacet
facet normal 0.0 0.6087614290087202 0.7933533402912355
  outer loop
    vertex 1.5000000000000002 20.878679656440355 9.128679656440356
    vertex 0.0 21.499999999999996 8.651923788646684
    vertex 0.0 20.878679656440355 9.128679656440356
  endloop
endfacet
facet normal 0.0 0.6087614290087202 0.7933533402912355
  outer loop
    vertex 0.0 21.499999999999996 8.651923788646684
    vertex 1.5000000000000002 20.878679656440355 9.128679656440356
    vertex 1.5000000000000002 21.499999999999996 8.651923788646684
  endloop
endfacet
facet normal 0.0 0.3826834323650898 0.9238795325112867
  outer loop
    vertex 1.5000000000000002 21.499999999999996 8.651923788646684
    vertex 0.0 22.223542864692433 8.352222521132795
    vertex 0.0 21.499999999999996 8.651923788646684
  endloop
endfacet
facet normal 0.0 0.3826834323650898 0.9238795325112867
  outer loop
    vertex 0.0 22.223542864692433 8.352222521132795
    vertex 1.5000000000000002 21.499999999999996 8.651923788646684
    vertex 1.5000000000000002 22.223542864692433 8.352222521132795
  endloop
endfacet
facet normal -1.0 1.044196761617538e-31 -3.688210181698236e-32
  outer loop
    vertex 47.5 1.5 21.0
    vertex 47.5 18.050252531694163 16.199747468305834
    vertex 47.5 1.5 1.5
  endloop
endfacet
facet normal -1.0 1.044196761617538e-31 -3.688210181698236e-32
  outer loop
    vertex 47.5 18.050252531694163 16.199747468305834
    vertex 47.5 1.5 21.0
    vertex 47.5 19.499999999999996 17.31217782649107
  endloop
endfacet
facet normal -1.0 1.044196761617538e-31 -3.688210181698236e-32
  outer loop
    vertex 47.5 19.499999999999996 17.31217782649107
    vertex 47.5 1.5 21.0
    vertex 47.5 21.18826668428235 18.01148078402348
  endloop
endfacet
facet normal -1.0 1.044196761617538e-31 -3.688210181698236e-32
  outer loop
    vertex 47.5 21.18826668428235 18.01148078402348
    vertex 47.5 1.5 21.0
    vertex 47.5 22.999999999999996 18.25
  endloop
endfacet
facet normal -1.0 1.044196761617538e-31 -3.688210181698236e-32
  outer loop
    vertex 47.5 22.999999999999996 18.25
    vertex 47.5 1.5 21.0
    vertex 47.5 44.5 21.0
  endloop
endfacet
facet normal -1.0 1.044196761617538e-31 -3.688210181698236e-32
  outer loop
    vertex 47.5 1.5 1.5
    vertex 47.5 18.050252531694163 16.199747468305834
    vertex 47.5 16.93782217350893 14.750000000000002
  endloop
endfacet
facet normal -1.0 1.044196761617538e-31 -3.688210181698236e-32
  outer loop
    vertex 47.5 1.5 1.5
    vertex 47.5 16.93782217350893 14.750000000000002
    vertex 47.5 16.23851921597652 13.061733315717648
  endloop
endfacet
facet normal -1.0 1.044196761617538e-31 -3.688210181698236e-32
  outer loop
    vertex 47.5 1.5 1.5
    vertex 47.5 16.23851921597652 13.061733315717648
    vertex 47.5 15.999999999999998 11.25
  endloop
endfacet
facet normal -1.0 1.044196761617538e-31 -3.688210181698236e-32
  outer loop
    vertex 47.5 22.999999999999996 18.25
    vertex 47.5 44.5 21.0
    vertex 47.5 24.81173331571765 18.01148078402348
  endloop
endfacet
facet normal -1.0 1.044196761617538e-31 -3.688210181698236e-32
  outer loop
    vertex 47.5 24.81173331571765 18.01148078402348
    vertex 47.5 44.5 21.0
    vertex 47.5 26.500000000000004 17.31217782649107
  endloop
endfacet
facet normal -1.0 1.044196761617538e-31 -3.688210181698236e-32
  outer loop
    vertex 47.5 26.500000000000004 17.31217782649107
    vertex 47.5 44.5 21.0
    vertex 47.5 27.94974746830583 16.199747468305834
  endloop
endfacet
facet normal -1.0 1.044196761617538e-31 -3.688210181698236e-32
  outer loop
    vertex 47.5 27.94974746830583 16.199747468305834
    vertex 47.5 44.5 21.0
    vertex 47.5 29.062177826491073 14.749999999999995
  endloop
endfacet
facet normal -1.0 1.044196761617538e-31 -3.688210181698236e-32
  outer loop
    vertex 47.5 29.062177826491073 14.749999999999995
    vertex 47.5 44.5 21.0
    vertex 47.5 29.761480784023473 13.06173331571764
  endloop
endfacet
facet normal -1.0 1.044196761617538e-31 -3.688210181698236e-32
  outer loop
    vertex 47.5 29.761480784023473 13.06173331571764
    vertex 47.5 44.5 21.0
    vertex 47.5 29.999999999999996 11.25
  endloop
endfacet
facet normal -1.0 1.044196761617538e-31 -3.688210181698236e-32
  outer loop
    vertex 47.5 1.5 1.5
    vertex 47.5 22.999999999999996 4.250000000000001
    vertex 47.5 44.5 1.5
  endloop
endfacet
facet normal -1.0 1.044196761617538e-31 -3.688210181698236e-32
  outer loop
    vertex 47.5 22.999999999999996 4.250000000000001
    vertex 47.5 1.5 1.5
    vertex 47.5 21.18826668428235 4.488519215976523
  endloop
endfacet
facet normal -1.0 1.044196761617538e-31 -3.688210181698236e-32
  outer loop
    vertex 47.5 21.18826668428235 4.488519215976523
    vertex 47.5 1.5 1.5
    vertex 47.5 19.499999999999996 5.187822173508931
  endloop
endfacet
facet normal -1.0 1.044196761617538e-31 -3.688210181698236e-32
  outer loop
    vertex 47.5 19.499999999999996 5.187822173508931
    vertex 47.5 1.5 1.5
    vertex 47.5 18.050252531694163 6.300252531694168
  endloop
endfacet
facet normal -1.0 1.044196761617538e-31 -3.688210181698236e-32
  outer loop
    vertex 47.5 18.050252531694163 6.300252531694168
    vertex 47.5 1.5 1.5
    vertex 47.5 16.937822173508927 7.750000000000003
  endloop
endfacet
facet normal -1.0 1.044196761617538e-31 -3.688210181698236e-32
  outer loop
    vertex 47.5 16.937822173508927 7.750000000000003
    vertex 47.5 1.5 1.5
    vertex 47.5 16.23851921597652 9.438266684282357
  endloop
endfacet
facet normal -1.0 1.044196761617538e-31 -3.688210181698236e-32
  outer loop
    vertex 47.5 16.23851921597652 9.438266684282357
    vertex 47.5 1.5 1.5
    vertex 47.5 15.999999999999998 11.25
  endloop
endfacet
facet normal -1.0 1.044196761617538e-31 -3.688210181698236e-32
  outer loop
    vertex 47.5 44.5 1.5
    vertex 47.5 22.999999999999996 4.250000000000001
    vertex 47.5 24.81173331571764 4.488519215976521
  endloop
endfacet
facet normal -1.0 1.044196761617538e-31 -3.688210181698236e-32
  outer loop
    vertex 47.5 44.5 1.5
    vertex 47.5 24.81173331571764 4.488519215976521
    vertex 47.5 26.499999999999996 5.18782217350893
  endloop
endfacet
facet normal -1.0 1.044196761617538e-31 -3.688210181698236e-32
  outer loop
    vertex 47.5 44.5 1.5
    vertex 47.5 26.499999999999996 5.18782217350893
    vertex 47.5 27.949747468305826 6.3002525316941655
  endloop
endfacet
facet normal -1.0 1.044196761617538e-31 -3.688210181698236e-32
  outer loop
    vertex 47.5 44.5 1.5
    vertex 47.5 27.949747468305826 6.3002525316941655
    vertex 47.5 29.062177826491066 7.749999999999997
  endloop
endfacet
facet normal -1.0 1.044196761617538e-31 -3.688210181698236e-32
  outer loop
    vertex 47.5 44.5 1.5
    vertex 47.5 29.062177826491066 7.749999999999997
    vertex 47.5 29.761480784023473 9.43826668428235
  endloop
endfacet
facet normal -1.0 1.044196761617538e-31 -3.688210181698236e-32
  outer loop
    vertex 47.5 44.5 1.5
    vertex 47.5 29.761480784023473 9.43826668428235
    vertex 47.5 29.999999999999996 11.25
  endloop
endfacet
facet normal -1.0 1.044196761617538e-31 -3.688210181698236e-32
  outer loop
    vertex 47.5 44.5 1.5
    vertex 47.5 29.999999999999996 11.25
    vertex 47.5 44.5 21.0
  endloop
endfacet
facet normal -0.0 0.13052619222005177 -0.9914448613738105
  outer loop
    vertex 49.00000000000002 22.999999999999996 18.25
    vertex 47.5 21.18826668428235 18.01148078402348
    vertex 47.5 22.999999999999996 18.25
  endloop
endfacet
facet normal -0.0 0.13052619222005177 -0.9914448613738105
  outer loop
    vertex 47.5 21.18826668428235 18.01148078402348
    vertex 49.00000000000002 22.999999999999996 18.25
    vertex 49.00000000000002 21.18826668428235 18.01148078402348
  endloop
endfacet
facet normal -0.0 -0.13052619222005135 -0.9914448613738105
  outer loop
    vertex 49.00000000000002 24.81173331571765 18.01148078402348
    vertex 47.5 22.999999999999996 18.25
    vertex 47.5 24.81173331571765 18.01148078402348
  endloop
endfacet
facet normal -0.0 -0.13052619222005135 -0.9914448613738105
  outer loop
    vertex 47.5 22.999999999999996 18.25
    vertex 49.00000000000002 24.81173331571765 18.01148078402348
    vertex 49.00000000000002 22.999999999999996 18.25
  endloop
endfacet
facet normal -0.0 -0.38268343236509006 -0.9238795325112868
  outer loop
    vertex 49.00000000000002 26.500000000000004 17.31217782649107
    vertex 47.5 24.81173331571765 18.01148078402348
    vertex 47.5 26.500000000000004 17.31217782649107
  endloop
endfacet
facet normal -0.0 -0.38268343236509006 -0.9238795325112868
  outer loop
    vertex 47.5 24.81173331571765 18.01148078402348
    vertex 49.00000000000002 26.500000000000004 17.31217782649107
    vertex 49.00000000000002 24.81173331571765 18.01148078402348
  endloop
endfacet
facet normal -0.0 -0.6087614290087217 -0.7933533402912346
  outer loop
    vertex 49.00000000000002 27.94974746830583 16.199747468305834
    vertex 47.5 26.500000000000004 17.31217782649107
    vertex 47.5 27.94974746830583 16.199747468305834
  endloop
endfacet
facet normal -0.0 -0.6087614290087217 -0.7933533402912346
  outer loop
    vertex 47.5 26.500000000000004 17.31217782649107
    vertex 49.00000000000002 27.94974746830583 16.199747468305834
    vertex 49.00000000000002 26.500000000000004 17.31217782649107
  endloop
endfacet
facet normal -0.0 -0.7933533402912355 -0.6087614290087203
  outer loop
    vertex 49.00000000000002 27.94974746830583 16.199747468305834
    vertex 47.5 29.062177826491073 14.749999999999995
    vertex 49.00000000000002 29.062177826491073 14.749999999999995
  endloop
endfacet
facet normal -0.0 -0.7933533402912355 -0.6087614290087203
  outer loop
    vertex 47.5 29.062177826491073 14.749999999999995
    vertex 49.00000000000002 27.94974746830583 16.199747468305834
    vertex 47.5 27.94974746830583 16.199747468305834
  endloop
endfacet
facet normal -0.0 -0.9238795325112878 -0.3826834323650874
  outer loop
    vertex 49.00000000000002 29.062177826491073 14.749999999999995
    vertex 47.5 29.761480784023473 13.06173331571764
    vertex 49.00000000000002 29.761480784023473 13.06173331571764
  endloop
endfacet
facet normal -0.0 -0.9238795325112878 -0.3826834323650874
  outer loop
    vertex 47.5 29.761480784023473 13.06173331571764
    vertex 49.00000000000002 29.062177826491073 14.749999999999995
    vertex 47.5 29.062177826491073 14.749999999999995
  endloop
endfacet
facet normal -0.0 -0.9914448613738105 -0.13052619222005196
  outer loop
    vertex 49.00000000000002 29.761480784023473 13.06173331571764
    vertex 47.5 29.999999999999996 11.25
    vertex 49.00000000000002 29.999999999999996 11.25
  endloop
endfacet
facet normal -0.0 -0.9914448613738105 -0.13052619222005196
  outer loop
    vertex 47.5 29.999999999999996 11.25
    vertex 49.00000000000002 29.761480784023473 13.06173331571764
    vertex 47.5 29.761480784023473 13.06173331571764
  endloop
endfacet
facet normal -0.0 -0.9914448613738105 0.13052619222005146
  outer loop
    vertex 49.00000000000002 29.999999999999996 11.25
    vertex 47.5 29.761480784023473 9.43826668428235
    vertex 49.00000000000002 29.761480784023473 9.43826668428235
  endloop
endfacet
facet normal -0.0 -0.9914448613738105 0.13052619222005146
  outer loop
    vertex 47.5 29.761480784023473 9.43826668428235
    vertex 49.00000000000002 29.999999999999996 11.25
    vertex 47.5 29.999999999999996 11.25
  endloop
endfacet
facet normal -0.0 -0.9238795325112867 0.38268343236509034
  outer loop
    vertex 49.00000000000002 29.761480784023473 9.43826668428235
    vertex 47.5 29.062177826491066 7.749999999999997
    vertex 49.00000000000002 29.062177826491066 7.749999999999997
  endloop
endfacet
facet normal -0.0 -0.9238795325112867 0.38268343236509034
  outer loop
    vertex 47.5 29.062177826491066 7.749999999999997
    vertex 49.00000000000002 29.761480784023473 9.43826668428235
    vertex 47.5 29.761480784023473 9.43826668428235
  endloop
endfacet
facet normal -0.0 -0.7933533402912344 0.6087614290087219
  outer loop
    vertex 49.00000000000002 29.062177826491066 7.749999999999997
    vertex 47.5 27.949747468305826 6.3002525316941655
    vertex 49.00000000000002 27.949747468305826 6.3002525316941655
  endloop
endfacet
facet normal -0.0 -0.7933533402912344 0.6087614290087219
  outer loop
    vertex 47.5 27.949747468305826 6.3002525316941655
    vertex 49.00000000000002 29.062177826491066 7.749999999999997
    vertex 47.5 29.062177826491066 7.749999999999997
  endloop
endfacet
facet normal -0.0 -0.6087614290087211 0.7933533402912348
  outer loop
    vertex 49.00000000000002 26.499999999999996 5.18782217350893
    vertex 47.5 27.949747468305826 6.3002525316941655
    vertex 47.5 26.499999999999996 5.18782217350893
  endloop
endfacet
facet normal -0.0 -0.6087614290087211 0.7933533402912348
  outer loop
    vertex 47.5 27.949747468305826 6.3002525316941655
    vertex 49.00000000000002 26.499999999999996 5.18782217350893
    vertex 49.00000000000002 27.949747468305826 6.3002525316941655
  endloop
endfacet
facet normal -0.0 -0.38268343236508945 0.923879532511287
  outer loop
    vertex 49.00000000000002 24.81173331571764 4.488519215976521
    vertex 47.5 26.499999999999996 5.18782217350893
    vertex 47.5 24.81173331571764 4.488519215976521
  endloop
endfacet
facet normal -0.0 -0.38268343236508945 0.923879532511287
  outer loop
    vertex 47.5 26.499999999999996 5.18782217350893
    vertex 49.00000000000002 24.81173331571764 4.488519215976521
    vertex 49.00000000000002 26.499999999999996 5.18782217350893
  endloop
endfacet
facet normal -0.0 -0.13052619222005118 0.9914448613738105
  outer loop
    vertex 49.00000000000002 22.999999999999996 4.250000000000001
    vertex 47.5 24.81173331571764 4.488519215976521
    vertex 47.5 22.999999999999996 4.250000000000001
  endloop
endfacet
facet normal -0.0 -0.13052619222005118 0.9914448613738105
  outer loop
    vertex 47.5 24.81173331571764 4.488519215976521
    vertex 49.00000000000002 22.999999999999996 4.250000000000001
    vertex 49.00000000000002 24.81173331571764 4.488519215976521
  endloop
endfacet
facet normal 0.0 0.13052619222005155 0.9914448613738105
  outer loop
    vertex 49.00000000000002 21.18826668428235 4.488519215976523
    vertex 47.5 22.999999999999996 4.250000000000001
    vertex 47.5 21.18826668428235 4.488519215976523
  endloop
endfacet
facet normal 0.0 0.13052619222005155 0.9914448613738105
  outer loop
    vertex 47.5 22.999999999999996 4.250000000000001
    vertex 49.00000000000002 21.18826668428235 4.488519215976523
    vertex 49.00000000000002 22.999999999999996 4.250000000000001
  endloop
endfacet
facet normal 0.0 0.3826834323650904 0.9238795325112867
  outer loop
    vertex 49.00000000000002 19.499999999999996 5.187822173508931
    vertex 47.5 21.18826668428235 4.488519215976523
    vertex 47.5 19.499999999999996 5.187822173508931
  endloop
endfacet
facet normal 0.0 0.3826834323650904 0.9238795325112867
  outer loop
    vertex 47.5 21.18826668428235 4.488519215976523
    vertex 49.00000000000002 19.499999999999996 5.187822173508931
    vertex 49.00000000000002 21.18826668428235 4.488519215976523
  endloop
endfacet
facet normal 0.0 0.6087614290087207 0.7933533402912354
  outer loop
    vertex 49.00000000000002 18.050252531694163 6.300252531694168
    vertex 47.5 19.499999999999996 5.187822173508931
    vertex 47.5 18.050252531694163 6.300252531694168
  endloop
endfacet
facet normal 0.0 0.6087614290087207 0.7933533402912354
  outer loop
    vertex 47.5 19.499999999999996 5.187822173508931
    vertex 49.00000000000002 18.050252531694163 6.300252531694168
    vertex 49.00000000000002 19.499999999999996 5.187822173508931
  endloop
endfacet
facet normal 0.0 0.7933533402912356 0.6087614290087201
  outer loop
    vertex 47.5 16.937822173508927 7.750000000000003
    vertex 49.00000000000002 18.050252531694163 6.300252531694168
    vertex 47.5 18.050252531694163 6.300252531694168
  endloop
endfacet
facet normal 0.0 0.7933533402912356 0.6087614290087201
  outer loop
    vertex 49.00000000000002 18.050252531694163 6.300252531694168
    vertex 47.5 16.937822173508927 7.750000000000003
    vertex 49.00000000000002 16.937822173508927 7.750000000000003
  endloop
endfacet
facet normal 0.0 0.9238795325112874 0.3826834323650888
  outer loop
    vertex 47.5 16.23851921597652 9.438266684282357
    vertex 49.00000000000002 16.937822173508927 7.750000000000003
    vertex 47.5 16.937822173508927 7.750000000000003
  endloop
endfacet
facet normal 0.0 0.9238795325112874 0.3826834323650888
  outer loop
    vertex 49.00000000000002 16.937822173508927 7.750000000000003
    vertex 47.5 16.23851921597652 9.438266684282357
    vertex 49.00000000000002 16.23851921597652 9.438266684282357
  endloop
endfacet
facet normal 0.0 0.9914448613738105 0.13052619222005185
  outer loop
    vertex 47.5 15.999999999999998 11.25
    vertex 49.00000000000002 16.23851921597652 9.438266684282357
    vertex 47.5 16.23851921597652 9.438266684282357
  endloop
endfacet
facet normal 0.0 0.9914448613738105 0.13052619222005185
  outer loop
    vertex 49.00000000000002 16.23851921597652 9.438266684282357
    vertex 47.5 15.999999999999998 11.25
    vertex 49.00000000000002 15.999999999999998 11.25
  endloop
endfacet
facet normal -0.0 0.9914448613738105 -0.13052619222005166
  outer loop
    vertex 47.5 16.23851921597652 13.061733315717648
    vertex 49.00000000000002 15.999999999999998 11.25
    vertex 47.5 15.999999999999998 11.25
  endloop
endfacet
facet normal -0.0 0.9914448613738105 -0.13052619222005166
  outer loop
    vertex 49.00000000000002 15.999999999999998 11.25
    vertex 47.5 16.23851921597652 13.061733315717648
    vertex 49.00000000000002 16.23851921597652 13.061733315717648
  endloop
endfacet
facet normal -0.0 0.9238795325112868 -0.38268343236509006
  outer loop
    vertex 47.5 16.93782217350893 14.750000000000002
    vertex 49.00000000000002 16.23851921597652 13.061733315717648
    vertex 47.5 16.23851921597652 13.061733315717648
  endloop
endfacet
facet normal -0.0 0.9238795325112868 -0.38268343236509006
  outer loop
    vertex 49.00000000000002 16.23851921597652 13.061733315717648
    vertex 47.5 16.93782217350893 14.750000000000002
    vertex 49.00000000000002 16.93782217350893 14.750000000000002
  endloop
endfacet
facet normal -0.0 0.7933533402912359 -0.6087614290087199
  outer loop
    vertex 47.5 18.050252531694163 16.199747468305834
    vertex 49.00000000000002 16.93782217350893 14.750000000000002
    vertex 47.5 16.93782217350893 14.750000000000002
  endloop
endfacet
facet normal -0.0 0.7933533402912359 -0.6087614290087199
  outer loop
    vertex 49.00000000000002 16.93782217350893 14.750000000000002
    vertex 47.5 18.050252531694163 16.199747468305834
    vertex 49.00000000000002 18.050252531694163 16.199747468305834
  endloop
endfacet
facet normal -0.0 0.6087614290087201 -0.7933533402912356
  outer loop
    vertex 49.00000000000002 19.499999999999996 17.31217782649107
    vertex 47.5 18.050252531694163 16.199747468305834
    vertex 47.5 19.499999999999996 17.31217782649107
  endloop
endfacet
facet normal -0.0 0.6087614290087201 -0.7933533402912356
  outer loop
    vertex 47.5 18.050252531694163 16.199747468305834
    vertex 49.00000000000002 19.499999999999996 17.31217782649107
    vertex 49.00000000000002 18.050252531694163 16.199747468305834
  endloop
endfacet
facet normal -0.0 0.38268343236509006 -0.9238795325112868
  outer loop
    vertex 49.00000000000002 21.18826668428235 18.01148078402348
    vertex 47.5 19.499999999999996 17.31217782649107
    vertex 47.5 21.18826668428235 18.01148078402348
  endloop
endfacet
facet normal -0.0 0.38268343236509006 -0.9238795325112868
  outer loop
    vertex 47.5 19.499999999999996 17.31217782649107
    vertex 49.00000000000002 21.18826668428235 18.01148078402348
    vertex 49.00000000000002 19.499999999999996 17.31217782649107
  endloop
endfacet
endsolid PowerSwitchMonitorCase
